<svg id="Filled" height="512" viewBox="0 0 512 512" width="512" xmlns="http://www.w3.org/2000/svg"><path d="m160 72h144v32h-144z" fill="#737d49"/><path d="m368 152h80v64h-80z" fill="#4d5230"/><path d="m264 136-72 48v48h8v32h184v-128z" fill="#60663c"/><path d="m384 152h32v32h-32z" fill="#60663c"/><path d="m192 184 72-48h120v48z" fill="#737d49"/><path d="m288 72h32a32 32 0 0 1 32 32v32a0 0 0 0 1 0 0h-64a0 0 0 0 1 0 0v-64a0 0 0 0 1 0 0z" fill="#60663c"/><path d="m480 280v72h-368v-72l40-16h48v-32h152l24-16h80v48z" fill="#737d49"/><path d="m480 360c0 26.758-9.944 58.488-18.746 81.332a47.949 47.949 0 0 1 -44.763 30.668h-240.982a47.949 47.949 0 0 1 -44.763-30.668c-8.802-22.844-18.746-54.574-18.746-81.332 0-48 28.65-64 64-64h240c35.35 0 64 16 64 64z" fill="#596063"/><path d="m448 360s0 .16-.01.46c0 .15 0 .34-.01.56s-.02.51-.03.82a173.243 173.243 0 0 1 -14.05 58.828 32.032 32.032 0 0 1 -29.388 19.332h-217.024a32.032 32.032 0 0 1 -29.388-19.332 173.243 173.243 0 0 1 -14.05-58.828c-.05-1.2-.05-1.84-.05-1.84a32 32 0 0 1 32-32h240a32 32 0 0 1 32 32z" fill="#414649"/><circle cx="232" cy="408" fill="#4f5659" r="32"/><circle cx="176" cy="360" fill="#4f5659" r="32"/><circle cx="416" cy="360" fill="#4f5659" r="32"/><g fill="#414649"><circle cx="232" cy="408" r="8"/><circle cx="176" cy="360" r="8"/><circle cx="416" cy="360" r="8"/></g><circle cx="296" cy="408" fill="#4f5659" r="32"/><circle cx="296" cy="408" fill="#414649" r="8"/><circle cx="360" cy="408" fill="#4f5659" r="32"/><circle cx="360" cy="408" fill="#414649" r="8"/><circle cx="264" cy="344" fill="#4f5659" r="16"/><circle cx="328" cy="344" fill="#4f5659" r="16"/><path d="m160 72h32v32h-32z" fill="#4d5230"/><path d="m32 184h160v48h-160z" fill="#4d5230"/><path d="m112 184h32v48h-32z" fill="#60663c"/><path d="m32 184h32v48h-32z" fill="#60663c"/><circle cx="232" cy="408" r="8"/><circle cx="176" cy="360" r="8"/><circle cx="416" cy="360" r="8"/><circle cx="296" cy="408" r="8"/><circle cx="360" cy="408" r="8"/><path d="m416 320h-240a40.045 40.045 0 0 0 -40 40s0 .721.052 2.053v.1a181.652 181.652 0 0 0 14.7 61.683 40 40 0 0 0 36.736 24.164h217.024a40 40 0 0 0 36.735-24.158 181.6 181.6 0 0 0 14.7-61.738v-.03c0-.028 0-.056 0-.085l.023-.614c.013-.3.017-.562.018-.782.011-.388.01-.593.01-.593a40.045 40.045 0 0 0 -39.998-40zm24 39.969v.218.083c0 .238-.008.476-.018.713 0 .1-.008.208-.011.316a23.985 23.985 0 1 1 .036-1.33zm-168-15.969a8 8 0 1 1 -8-8 8.009 8.009 0 0 1 8 8zm-8 24a23.992 23.992 0 0 0 22.624-32h18.752a24 24 0 1 0 45.248 0h33.4a39.91 39.91 0 0 0 -6.092 36.26 39.927 39.927 0 0 0 -49.932 11.768 39.958 39.958 0 0 0 -64 0 39.927 39.927 0 0 0 -49.93-11.768 39.91 39.91 0 0 0 -6.092-36.26h33.4a23.992 23.992 0 0 0 22.622 32zm72-24a8 8 0 1 1 -8-8 8.009 8.009 0 0 1 8 8zm-128 64a24 24 0 1 1 24 24 24.028 24.028 0 0 1 -24-24zm56 23.972.022.028h-.044zm8-23.972a24 24 0 1 1 24 24 24.028 24.028 0 0 1 -24-24zm56 23.972.022.028h-.044zm8-23.972a24 24 0 1 1 24 24 24.028 24.028 0 0 1 -24-24zm-160-72a24 24 0 1 1 -23.966 25.27c0-.055 0-.109-.006-.16-.017-.368-.028-.738-.028-1.11a24.027 24.027 0 0 1 24-24zm-10.561 81.494a168.7 168.7 0 0 1 -7.713-21.931 39.856 39.856 0 0 0 36.2.177 39.91 39.91 0 0 0 6.096 36.26h-12.534a24.014 24.014 0 0 1 -22.049-14.506zm261.122 0a24.014 24.014 0 0 1 -22.049 14.506h-12.534a39.91 39.91 0 0 0 6.092-36.26 39.856 39.856 0 0 0 36.2-.177 168.6 168.6 0 0 1 -7.709 21.931z"/><path d="m32 240h160v16h-40a8 8 0 0 0 -2.971.572l-40 16a8 8 0 0 0 -5.029 7.428v72h.274c-.178 2.6-.274 5.258-.274 8 0 28.239 10.485 61.379 19.281 84.208a56.282 56.282 0 0 0 52.228 35.792h240.982a56.282 56.282 0 0 0 52.228-35.792c8.796-22.829 19.281-55.969 19.281-84.208 0-2.742-.1-5.4-.274-8h.274v-72a8 8 0 0 0 -3.562-6.656l-20.438-13.625v-43.719a8 8 0 0 0 -8-8v-56a8 8 0 0 0 -8-8h-56v-104a8 8 0 0 0 -16 0v88h-16v-24a40.045 40.045 0 0 0 -40-40h-160a8 8 0 0 0 -8 8v32a8 8 0 0 0 8 8h120v16h-16a7.993 7.993 0 0 0 -4.438 1.344l-69.984 46.656h-157.578a8 8 0 0 0 -8 8v48a8 8 0 0 0 8 8zm344-32a8 8 0 0 0 -4.438 1.344l-21.984 14.656h-149.578v-32h176zm-192 16h-32v-32h32zm-48 0h-16v-32h16zm-32 0h-32v-32h32zm349.79 214.455a40.189 40.189 0 0 1 -37.299 25.545h-240.982a40.189 40.189 0 0 1 -37.3-25.544c-8.309-21.563-18.209-52.677-18.209-78.456 0-20.008 5.374-34.793 15.972-43.945 9.264-7.999 22.728-12.055 40.028-12.055h240c17.3 0 30.764 4.056 40.028 12.055 10.598 9.152 15.972 23.937 15.972 43.945 0 25.779-9.9 56.893-18.21 78.455zm18.21-154.174v25.105c-12.173-14.008-31.076-21.386-56-21.386h-240c-24.924 0-43.827 7.378-56 21.386v-23.97l33.541-13.416h46.459a8 8 0 0 0 8-8v-24h144a8 8 0 0 0 4.438-1.344l21.984-14.656h69.578v40a8 8 0 0 0 3.562 6.656zm-80-76.281v-16h48v16zm48-32h-16v-16h16zm-32-16v16h-16v-16zm-240-80h16v16h-16zm32 16v-16h80v16zm96 8v-24h24a24.028 24.028 0 0 1 24 24v24h-48zm-29.578 40h109.578v32h-157.578zm-226.422 48h16v32h-16z"/></svg>