<?xml version="1.0" encoding="utf-8"?>
<!-- Generator: Adobe Illustrator 24.3.0, SVG Export Plug-In . SVG Version: 6.00 Build 0)  -->
<svg version="1.1" id="Filled" xmlns="http://www.w3.org/2000/svg" xmlns:xlink="http://www.w3.org/1999/xlink" x="0px" y="0px"
	 viewBox="0 0 512 512" style="enable-background:new 0 0 512 512;" xml:space="preserve">
<style type="text/css">
	.st0{fill:#4D5230;}
	.st1{fill:#60663C;}
	.st2{fill:#737D49;}
	.st3{fill:#596063;}
	.st4{fill:#414649;}
	.st5{fill:#4F5659;}
</style>
<path class="st0" d="M368,152h80v64h-80V152z"/>
<path class="st1" d="M264,136l-72,48v48h8v32h184V136H264z"/>
<path class="st1" d="M384,152h32v32h-32V152z"/>
<path class="st2" d="M192,184l72-48h120v48H192z"/>
<path class="st2" d="M480,280v72H112v-72l40-16h48v-32h152l24-16h80v48L480,280z"/>
<path class="st3" d="M480,360c0,26.8-9.9,58.5-18.7,81.3c-7.1,18.5-24.9,30.7-44.8,30.7h-241c-19.8,0-37.6-12.2-44.8-30.7
	c-8.8-22.8-18.7-54.6-18.7-81.3c0-48,28.6-64,64-64h240C451.4,296,480,312,480,360z"/>
<path class="st4" d="M448,360c0,0,0,0.2,0,0.5c0,0.1,0,0.3,0,0.6s0,0.5,0,0.8c-1.2,20.3-6,40.2-14,58.8
	c-5.1,11.7-16.6,19.3-29.4,19.3h-217c-12.8,0-24.3-7.6-29.4-19.3c-8.1-18.6-12.9-38.5-14.1-58.8c-0.1-1.2-0.1-1.8-0.1-1.8
	c0-17.7,14.3-32,32-32h240C433.7,328,448,342.3,448,360z"/>
<circle class="st5" cx="232" cy="408" r="32"/>
<circle class="st5" cx="176" cy="360" r="32"/>
<circle class="st5" cx="416" cy="360" r="32"/>
<circle class="st4" cx="232" cy="408" r="8"/>
<circle class="st4" cx="176" cy="360" r="8"/>
<circle class="st4" cx="416" cy="360" r="8"/>
<circle class="st5" cx="296" cy="408" r="32"/>
<circle class="st4" cx="296" cy="408" r="8"/>
<circle class="st5" cx="360" cy="408" r="32"/>
<circle class="st4" cx="360" cy="408" r="8"/>
<circle class="st5" cx="264" cy="344" r="16"/>
<circle class="st5" cx="328" cy="344" r="16"/>
<circle cx="232" cy="408" r="8"/>
<circle cx="176" cy="360" r="8"/>
<circle cx="416" cy="360" r="8"/>
<circle cx="296" cy="408" r="8"/>
<circle cx="360" cy="408" r="8"/>
<path d="M416,320H176c-22.1,0-40,17.9-40,40c0,0,0,0.7,0.1,2.1v0.1c1.2,21.3,6.2,42.1,14.7,61.7c6.3,14.7,20.8,24.2,36.7,24.2h217
	c16,0,30.4-9.5,36.7-24.2c8.5-19.6,13.5-40.5,14.7-61.7v0c0,0,0-0.1,0-0.1l0-0.6c0-0.3,0-0.6,0-0.8c0-0.4,0-0.6,0-0.6
	C456,337.9,438.1,320,416,320L416,320z M440,360v0.2v0.1c0,0.2,0,0.5,0,0.7c0,0.1,0,0.2,0,0.3c-0.7,13.2-12,23.4-25.3,22.6
	c-13.2-0.7-23.4-12-22.6-25.3c0.7-13.2,12-23.4,25.3-22.6C430,336.7,440,347.2,440,360L440,360z M272,344c0,4.4-3.6,8-8,8
	s-8-3.6-8-8s3.6-8,8-8C268.4,336,272,339.6,272,344z M264,368c13.3,0,24-10.7,24-24c0-2.7-0.5-5.4-1.4-8h18.8
	c-4.4,12.5,2.1,26.2,14.6,30.6c12.5,4.4,26.2-2.1,30.6-14.6c1.8-5.2,1.8-10.8,0-16H384c-7.8,10.4-10.1,23.9-6.1,36.3
	c-17.3-8.7-38.3-3.7-49.9,11.8c-13.2-17.7-38.3-21.3-55.9-8.1c-3.1,2.3-5.8,5-8.1,8.1c-11.6-15.5-32.6-20.5-49.9-11.8
	c4-12.4,1.7-25.9-6.1-36.3h33.4c-4.4,12.5,2.1,26.2,14.6,30.6C258.6,367.5,261.3,368,264,368L264,368z M336,344c0,4.4-3.6,8-8,8
	s-8-3.6-8-8s3.6-8,8-8C332.4,336,336,339.6,336,344z M208,408c0-13.3,10.7-24,24-24s24,10.7,24,24s-10.7,24-24,24
	C218.8,432,208,421.2,208,408z M264,432L264,432L264,432L264,432z M272,408c0-13.3,10.7-24,24-24s24,10.7,24,24s-10.7,24-24,24
	C282.8,432,272,421.2,272,408z M328,432L328,432L328,432L328,432z M336,408c0-13.3,10.7-24,24-24s24,10.7,24,24s-10.7,24-24,24
	C346.8,432,336,421.2,336,408z M176,336c13.3,0,24,10.7,24,24c0,13.3-10.7,24-24,24c-12.8,0-23.3-10-24-22.7c0-0.1,0-0.1,0-0.2
	c0-0.4,0-0.7,0-1.1C152,346.8,162.8,336,176,336z M165.4,417.5c-3.1-7.1-5.6-14.5-7.7-21.9c11.3,5.9,24.8,5.9,36.2,0.2
	c-4,12.4-1.7,25.9,6.1,36.3h-12.5C177.9,432,169.2,426.3,165.4,417.5z M426.6,417.5c-3.8,8.8-12.5,14.5-22,14.5H392
	c7.8-10.4,10.1-23.9,6.1-36.3c11.4,5.7,24.9,5.7,36.2-0.2C432.2,403,429.6,410.4,426.6,417.5z"/>
<path d="M488,280c0-2.7-1.3-5.2-3.6-6.7L464,259.7V216c0-4.4-3.6-8-8-8v-56c0-4.4-3.6-8-8-8h-56v-16.1h-16v0.1h-16v-0.1h-16v0.1h-48
	v-0.1h-16v0.1h-16c-1.6,0-3.1,0.5-4.4,1.3l-67.8,45.2V240h0.2v16h-40c-1,0-2,0.2-3,0.6l-40,16c-3,1.2-5,4.2-5,7.4v72h0.3
	c-0.2,2.6-0.3,5.3-0.3,8c0,28.2,10.5,61.4,19.3,84.2c8.4,21.5,29.1,35.7,52.2,35.8h241c23.1-0.1,43.8-14.3,52.2-35.8
	c8.8-22.8,19.3-56,19.3-84.2c0-2.7-0.1-5.4-0.3-8h0.3V280z M424,160h16v16h-16V160z M392,160h16v16h-16V160z M392,192h48v16h-48V192
	z M266.4,144H376v32H218.4L266.4,144z M200,192h176v16c-1.6,0-3.1,0.5-4.4,1.3l-22,14.7H200V192z M453.8,438.5
	c-6,15.4-20.8,25.5-37.3,25.5h-241c-16.5-0.1-31.3-10.2-37.3-25.5c-8.3-21.6-18.2-52.7-18.2-78.5c0-20,5.4-34.8,16-43.9
	c9.3-8,22.7-12.1,40-12.1h240c17.3,0,30.8,4.1,40,12.1c10.6,9.2,16,23.9,16,43.9C472,385.8,462.1,416.9,453.8,438.5z M472,309.4
	c-12.2-14-31.1-21.4-56-21.4H176c-24.9,0-43.8,7.4-56,21.4v-24l33.5-13.4H200c4.4,0,8-3.6,8-8v-24h144c1.6,0,3.1-0.5,4.4-1.3
	l22-14.7H448v40c0,2.7,1.3,5.2,3.6,6.7l20.4,13.6V309.4z"/>
</svg>
