<?xml version="1.0" encoding="utf-8"?>
<!-- Generator: Adobe Illustrator 24.3.0, SVG Export Plug-In . SVG Version: 6.00 Build 0)  -->
<svg version="1.1" id="Filled" xmlns="http://www.w3.org/2000/svg" xmlns:xlink="http://www.w3.org/1999/xlink" x="0px" y="0px"
	 viewBox="0 0 512 512" style="enable-background:new 0 0 512 512;" xml:space="preserve">
<style type="text/css">
	.st0{fill:#4D5230;}
	.st1{fill:#60663C;}
	.st2{fill:#737D49;}
	.st3{fill:#596063;}
	.st4{fill:#414649;}
	.st5{fill:#4F5659;}
</style>
<path class="st0" d="M338.5,105.5h95.3v76.2h-95.3V105.5z"/>
<path class="st1" d="M214.6,86.5l-85.8,57.2v57.2h9.5v38.1h219.2V86.5H214.6z"/>
<path class="st1" d="M357.6,105.5h38.1v38.1h-38.1V105.5z"/>
<path class="st2" d="M128.8,143.6l85.8-57.2h143v57.2H128.8z"/>
<path class="st2" d="M471.9,258v85.8H33.5V258l47.7-19.1h57.2v-38.1h181.1l28.6-19.1h95.3v57.2L471.9,258z"/>
<path class="st3" d="M471.9,353.3c0,31.9-11.8,69.7-22.3,96.9c-8.5,22-29.7,36.6-53.4,36.6H109.2c-23.6,0-44.8-14.5-53.4-36.6
	c-10.5-27.2-22.3-65-22.3-96.9c0-57.2,34.1-76.2,76.2-76.2h285.9C437.9,277.1,471.9,296.1,471.9,353.3z"/>
<path class="st4" d="M433.8,353.3c0,0,0,0.2,0,0.6c0,0.1,0,0.4,0,0.7s0,0.6,0,1c-1.4,24.2-7.1,47.9-16.7,70.1
	c-6.1,13.9-19.8,23-35,23H123.6c-15.2,0-28.9-9.1-35-23c-9.6-22.2-15.4-45.9-16.8-70.1c-0.1-1.4-0.1-2.1-0.1-2.1
	c0-21.1,17-38.1,38.1-38.1h285.9C416.8,315.2,433.8,332.2,433.8,353.3z"/>
<circle class="st5" cx="176.5" cy="410.5" r="38.1"/>
<circle class="st5" cx="109.8" cy="353.3" r="38.1"/>
<circle class="st5" cx="395.7" cy="353.3" r="38.1"/>
<circle class="st4" cx="176.5" cy="410.5" r="9.5"/>
<circle class="st4" cx="109.8" cy="353.3" r="9.5"/>
<circle class="st4" cx="395.7" cy="353.3" r="9.5"/>
<circle class="st5" cx="252.7" cy="410.5" r="38.1"/>
<circle class="st4" cx="252.7" cy="410.5" r="9.5"/>
<circle class="st5" cx="329" cy="410.5" r="38.1"/>
<circle class="st4" cx="329" cy="410.5" r="9.5"/>
<circle class="st5" cx="214.6" cy="334.3" r="19.1"/>
<circle class="st5" cx="290.9" cy="334.3" r="19.1"/>
<circle cx="176.5" cy="410.5" r="9.5"/>
<circle cx="109.8" cy="353.3" r="9.5"/>
<circle cx="395.7" cy="353.3" r="9.5"/>
<circle cx="252.7" cy="410.5" r="9.5"/>
<circle cx="329" cy="410.5" r="9.5"/>
<path d="M395.7,305.7H109.8c-26.3,0-47.7,21.3-47.7,47.7c0,0,0,0.8,0.1,2.5v0.1c1.4,25.4,7.4,50.2,17.5,73.5
	c7.5,17.5,24.8,28.8,43.7,28.8H382c19.1,0,36.2-11.3,43.7-28.8c10.1-23.4,16.1-48.2,17.5-73.5l0,0v-0.1v-0.7c0-0.4,0-0.7,0-1
	c0-0.5,0-0.7,0-0.7C443.4,327,422,305.7,395.7,305.7L395.7,305.7z M424.3,353.3v0.2v0.1c0,0.2,0,0.6,0,0.8c0,0.1,0,0.2,0,0.4
	c-0.8,15.7-14.3,27.9-30.1,26.9c-15.7-0.8-27.9-14.3-26.9-30.1c0.8-15.7,14.3-27.9,30.1-26.9C412.4,325.6,424.3,338.1,424.3,353.3
	L424.3,353.3z M224.1,334.3c0,5.2-4.3,9.5-9.5,9.5c-5.2,0-9.5-4.3-9.5-9.5s4.3-9.5,9.5-9.5C219.9,324.7,224.1,329,224.1,334.3z
	 M214.6,362.8c15.8,0,28.6-12.7,28.6-28.6c0-3.2-0.6-6.4-1.7-9.5h22.4c-5.2,14.9,2.5,31.2,17.4,36.5s31.2-2.5,36.5-17.4
	c2.1-6.2,2.1-12.9,0-19.1h39.8c-9.3,12.4-12,28.5-7.3,43.2c-20.6-10.4-45.6-4.4-59.4,14.1c-15.7-21.1-45.6-25.4-66.6-9.6
	c-3.7,2.7-6.9,6-9.6,9.6c-13.8-18.5-38.8-24.4-59.4-14.1c4.8-14.8,2-30.9-7.3-43.2h39.8c-5.2,14.9,2.5,31.2,17.4,36.5
	C208.2,362.2,211.4,362.8,214.6,362.8L214.6,362.8z M300.4,334.3c0,5.2-4.3,9.5-9.5,9.5c-5.2,0-9.5-4.3-9.5-9.5s4.3-9.5,9.5-9.5
	C296.1,324.7,300.4,329,300.4,334.3z M147.9,410.5c0-15.8,12.7-28.6,28.6-28.6s28.6,12.7,28.6,28.6s-12.7,28.6-28.6,28.6
	C160.8,439.1,147.9,426.2,147.9,410.5z M214.6,439.1L214.6,439.1L214.6,439.1L214.6,439.1z M224.1,410.5c0-15.8,12.7-28.6,28.6-28.6
	s28.6,12.7,28.6,28.6s-12.7,28.6-28.6,28.6C237,439.1,224.1,426.2,224.1,410.5z M290.9,439.1L290.9,439.1L290.9,439.1L290.9,439.1z
	 M300.4,410.5c0-15.8,12.7-28.6,28.6-28.6s28.6,12.7,28.6,28.6s-12.7,28.6-28.6,28.6C313.3,439.1,300.4,426.2,300.4,410.5z
	 M109.8,324.7c15.8,0,28.6,12.7,28.6,28.6s-12.7,28.6-28.6,28.6c-15.2,0-27.8-11.9-28.6-27c0-0.1,0-0.1,0-0.2c0-0.5,0-0.8,0-1.3
	C81.2,337.6,94.1,324.7,109.8,324.7z M97.1,421.8c-3.7-8.5-6.7-17.3-9.2-26.1c13.5,7,29.5,7,43.1,0.2c-4.8,14.8-2,30.9,7.3,43.2
	h-14.9C112,439.1,101.7,432.3,97.1,421.8z M408.3,421.8c-4.5,10.5-14.9,17.3-26.2,17.3h-15c9.3-12.4,12-28.5,7.3-43.2
	c13.6,6.8,29.7,6.8,43.1-0.2C415,404.5,411.9,413.4,408.3,421.8z"/>
<path d="M481.5,258c0-3.2-1.5-6.2-4.3-8l-24.3-16.2v-52.1c0-5.2-4.3-9.5-9.5-9.5v-66.7c0-5.2-4.3-9.5-9.5-9.5h-66.7V76.8H348v0.1
	H329v-0.1h-19.1v0.1h-57.2v-0.1h-19.1v0.1h-19.1c-1.9,0-3.7,0.6-5.2,1.5l-80.8,53.8v78h0.2v19.1H81.2c-1.2,0-2.4,0.2-3.6,0.7
	L30,249.2c-3.6,1.4-6,5-6,8.8v85.8h0.4c-0.2,3.1-0.4,6.3-0.4,9.5c0,33.6,12.5,73.1,23,100.3c10,25.6,34.7,42.5,62.2,42.6h287.1
	c27.5-0.1,52.2-17,62.2-42.6c10.5-27.2,23-66.7,23-100.3c0-3.2-0.1-6.4-0.4-9.5h0.4V258z M405.2,115h19.1v19.1h-19.1V115z
	 M367.1,115h19.1v19.1h-19.1V115z M367.1,153.2h57.2v19.1h-57.2V153.2z M217.5,96H348v38.1H160.3L217.5,96z M138.4,153.2H348v19.1
	c-1.9,0-3.7,0.6-5.2,1.5l-26.2,17.5H138.4V153.2z M440.7,446.8c-7.1,18.3-24.8,30.4-44.4,30.4H109.2c-19.7-0.1-37.3-12.2-44.4-30.4
	c-9.9-25.7-21.7-62.8-21.7-93.5c0-23.8,6.4-41.5,19.1-52.3c11.1-9.5,27-14.4,47.7-14.4h285.9c20.6,0,36.7,4.9,47.7,14.4
	c12.6,11,19.1,28.5,19.1,52.3C462.4,384.1,450.6,421.1,440.7,446.8z M462.4,293c-14.5-16.7-37.1-25.5-66.7-25.5H109.8
	c-29.7,0-52.2,8.8-66.7,25.5v-28.6l39.9-16h55.4c5.2,0,9.5-4.3,9.5-9.5v-28.6h171.6c1.9,0,3.7-0.6,5.2-1.5l26.2-17.5h82.9v47.7
	c0,3.2,1.5,6.2,4.3,8l24.3,16.2V293z"/>
</svg>
