<svg id="Layer_1" data-name="Layer 1" xmlns="http://www.w3.org/2000/svg" viewBox="0 0 50 50"><defs><style>.cls-1{opacity:0;}</style></defs><rect x="8.02" y="10.27" width="3" height="29"/><path d="M10.52,10.77v28h-2v-28h2m1-1h-4v30h4v-30Z"/><rect x="38.02" y="10.27" width="3" height="29"/><path d="M40.52,10.77v28h-2v-28h2m1-1h-4v30h4v-30Z"/><rect x="8.02" y="36.27" width="33" height="3"/><path d="M40.52,36.77v2h-32v-2h32m1-1h-34v4h34v-4Z"/><rect x="8.02" y="10.27" width="33" height="3"/><path d="M40.52,10.77v2h-32v-2h32m1-1h-34v4h34v-4Z"/><g class="cls-1"><path d="M49,1V49H1V1H49m1-1H0V50H50V0Z"/></g></svg>