<?xml version="1.0" encoding="utf-8"?>
<!-- Generator: Adobe Illustrator 24.3.0, SVG Export Plug-In . SVG Version: 6.00 Build 0)  -->
<svg version="1.1" id="Layer_1" xmlns="http://www.w3.org/2000/svg" xmlns:xlink="http://www.w3.org/1999/xlink" x="0px" y="0px"
	 viewBox="0 0 50 50" style="enable-background:new 0 0 50 50;" xml:space="preserve">
<style type="text/css">
	.st0{fill:#22BB33;}
	.st1{opacity:0;}
</style>
<rect x="8" y="10.3" class="st0" width="3" height="29"/>
<path class="st0" d="M10.5,10.8v28h-2v-28H10.5 M11.5,9.8h-4v30h4V9.8z"/>
<rect x="38" y="10.3" class="st0" width="3" height="29"/>
<path class="st0" d="M40.5,10.8v28h-2v-28H40.5 M41.5,9.8h-4v30h4V9.8z"/>
<rect x="8" y="36.3" class="st0" width="33" height="3"/>
<path class="st0" d="M40.5,36.8v2h-32v-2H40.5 M41.5,35.8h-34v4h34V35.8z"/>
<rect x="8" y="10.3" class="st0" width="33" height="3"/>
<path class="st0" d="M40.5,10.8v2h-32v-2H40.5 M41.5,9.8h-34v4h34V9.8z"/>
<g class="st1">
	<path d="M49,1v48H1V1H49 M50,0H0v50h50V0z"/>
</g>
</svg>
