<?xml version="1.0" encoding="utf-8"?>
<!-- Generator: Adobe Illustrator 24.3.0, SVG Export Plug-In . SVG Version: 6.00 Build 0)  -->
<svg version="1.1" id="Filled" xmlns="http://www.w3.org/2000/svg" xmlns:xlink="http://www.w3.org/1999/xlink" x="0px" y="0px"
	 viewBox="0 0 512 512" style="enable-background:new 0 0 512 512;" xml:space="preserve">
<style type="text/css">
	.st0{fill:#606669;}
	.st1{fill:#828C52;}
	.st2{fill:#4D5230;}
	.st3{fill:#4F5659;}
</style>
<path class="st0" d="M248,336h64l0,0v32l0,0h-64c-8.8,0-16-7.2-16-16S239.2,336,248,336z"/>
<path class="st1" d="M440,416v-96H288l-8,48h-96l8-48l24-112h-32l-32,112H32v128h408h32v-32H440z"/>
<path class="st2" d="M280,448h160c0-44.2-35.8-80-80-80S280,403.8,280,448"/>
<circle class="st3" cx="360" cy="448" r="48"/>
<path class="st2" d="M32,368h112l56,80H32V368z"/>
<path class="st1" d="M24,416h48v32H24V416z"/>
<circle class="st3" cx="104" cy="448" r="48"/>
<path class="st3" d="M464,272L464,272c13.3,0,24,10.7,24,24v64c0,13.3-10.7,24-24,24l0,0c-13.3,0-24-10.7-24-24v-64
	C440,282.7,450.7,272,464,272z"/>
<g>
	<path class="st0" d="M424,256c8.8,0,16,7.2,16,16v48l0,0h-32l0,0v-48C408,263.2,415.2,256,424,256z"/>
	<path class="st0" d="M320,256c8.8,0,16,7.2,16,16v48l0,0h-32l0,0v-48C304,263.2,311.2,256,320,256z"/>
	<circle class="st0" cx="104" cy="448" r="16"/>
	<circle class="st0" cx="360" cy="448" r="16"/>
</g>
<path d="M360,424c-13.3,0-24,10.7-24,24s10.7,24,24,24s24-10.7,24-24S373.3,424,360,424z M360,456c-4.4,0-8-3.6-8-8s3.6-8,8-8
	s8,3.6,8,8S364.4,456,360,456z"/>
<path d="M22,448h24.6c4,27.6,27.6,48,55.4,48s51.4-20.4,55.4-48h145.2c4,27.6,27.6,48,55.4,48s51.4-20.4,55.4-48H470
	c4.4,0,8-3.6,8-8v-32c0-4.4-3.6-8-8-8h-24v-20.3c9.9,5.7,22.1,5.7,32,0s16-16.3,16-27.7v-64c0-11.5-6.1-22.1-16.1-27.8
	c-10-5.7-22.3-5.6-32.2,0.3c-1.8-12.5-12.9-21.4-25.5-20.4C407.7,241,398,251.4,398,264v40h-56v-40c0-13.3-10.7-24-24-24
	s-24,10.7-24,24v40h-8c-3.9,0-7.2,2.8-7.9,6.7l-1.6,9.3h-30.6c-7.7,0-15,3.8-19.5,10.1c-4.5,6.4-5.6,14.6-3,21.9h-31.6l8.4-41.9
	l38.5-24.1l8.5,14.1c2.2,3.8,7.1,5,10.9,2.8c3.8-2.3,5-7.2,2.8-11l-12.7-21.2l0,0l0,0l-11.3-18.8c-2.3-3.8-7.2-5-11-2.8
	c-3.8,2.3-5,7.2-2.8,11l7.3,12.2l-26,16.2l17.4-87c0.5-2.3-0.1-4.7-1.6-6.6c-1.5-1.8-3.8-2.9-6.2-2.9h-32c-3.6,0-6.7,2.4-7.7,5.8
	L144,304H30c-4.4,0-8,3.6-8,8v88c-4.4,0-8,3.6-8,8v32C14,444.4,17.6,448,22,448z M30,416h21.4c-2.4,5.1-4,10.5-4.8,16H30V416z
	 M102,480c-22.1,0-40-17.9-40-40s17.9-40,40-40s40,17.9,40,40S124.1,480,102,480z M358,384c-27.8,0-51.4,20.5-55.4,48h-16.1
	c4-36.4,34.8-64,71.5-64s67.5,27.6,71.5,64h-16.1C409.4,404.5,385.8,384,358,384z M358,480c-22.1,0-40-17.9-40-40s17.9-40,40-40
	s40,17.9,40,40S380.1,480,358,480z M462,416v16h-16v-16H462z M478,332.9l-13.5-4.5c-1.6-0.5-3.4-0.5-5,0l-13.5,4.5v-15.1l16-5.3
	l16,5.3V332.9z M462,368c-8.8,0-16-7.2-16-16v-2.2l16-5.3l16,5.3v2.2C478,360.8,470.8,368,462,368z M462,272c8.8,0,16,7.2,16,16
	v12.9l-13.5-4.5c-1.6-0.5-3.4-0.5-5,0l-13.5,4.5V288C446,279.2,453.2,272,462,272z M414,264c0-4.4,3.6-8,8-8s8,3.6,8,8v40h-16V264z
	 M310,264c0-4.4,3.6-8,8-8s8,3.6,8,8v40h-16V264z M238,344c0-4.4,3.6-8,8-8h27.9l-2.7,16H246C241.6,352,238,348.4,238,344z M150,320
	c3.6,0,6.7-2.4,7.7-5.8L188,208h16.2l-30.1,150.4c-0.4,2.4,0.2,4.8,1.7,6.7c1.5,1.8,3.8,2.9,6.2,2.9h96c3.9,0,7.2-2.8,7.9-6.7
	l6.9-41.3H430v69.5c-21.2-30.3-59-44-94.7-34.5c-35.6,9.5-61.6,40.2-64.9,77h-68.2l-53.6-76.6c-1.5-2.1-4-3.4-6.6-3.4H38v-32H150z
	 M38,368h99.8l44.8,64h-25.2c-3-20.9-17.5-38.3-37.4-45c-20-6.8-42.1-1.8-57.1,13H38V368z"/>
<path d="M104,424c-13.3,0-24,10.7-24,24s10.7,24,24,24s24-10.7,24-24S117.3,424,104,424z M104,456c-4.4,0-8-3.6-8-8s3.6-8,8-8
	s8,3.6,8,8S108.4,456,104,456z"/>
</svg>
