<svg id="Filled" height="512" viewBox="0 0 512 512" width="512" xmlns="http://www.w3.org/2000/svg"><path d="M 248 240 h 64 a 0 0 0 0 1 0 0 v 32 a 0 0 0 0 1 0 0 h -64 a 16 16 0 0 1 -16 -16 a 16 16 0 0 1 16 -16 z" fill="#606669"/><path d="M 440 320 v -96 h -152 l -8 48 h -96 l 8 -48 l 24 -112 h -32 l -32 112 h -120 v 128 h 408 h 32 v -32 z" fill="#828c52"/><path d="M 280 352 h 160 a 80 80 0 0 0 -160 0" fill="#4d5230"/><circle cx="360" cy="352" fill="#4f5659" r="48"/><path d="M 32 272 h 112 l 56 80 h -168 z" fill="#4d5230"/><path d="M 24 320 h 48 v 32 h -48 z" fill="#828c52"/><circle cx="104" cy="352" fill="#4f5659" r="48"/><rect fill="#4f5659" height="112" rx="24" width="48" x="440" y="176"/><g fill="#606669"><path d="M 424 160 a 16 16 0 0 1 16 16 v 48 a 0 0 0 0 1 0 0 h -32 a 0 0 0 0 1 0 0 v -48 a 16 16 0 0 1 16 -16 z"/><path d="M 320 160 a 16 16 0 0 1 16 16 v 48 a 0 0 0 0 1 0 0 h -32 a 0 0 0 0 1 0 0 v -48 a 16 16 0 0 1 16 -16 z"/><circle cx="104" cy="352" r="16"/><circle cx="360" cy="352" r="16"/></g><path d="M 360 328 a 24 24 0 1 0 24 24 a 24 24 0 0 0 -24 -24 z m 0 32 a 8 8 0 1 1 8 -8 a 8 8 0 0 1 -8 8 z"/><path d="M 22 352 h 24.6 C 50.6 379.6 74.2 400 102 400 C 129.8 400 153.4 379.6 157.4 352 h 145.2 C 306.6 379.6 330.2 400 358 400 C 385.8 400 409.4 379.6 413.4 352 h 56.6 C 474.4 352 478 348.4 478 344 v -32 C 478 307.6 474.4 304 470 304 h -24 v -20.3 C 455.9 289.4 468.1 289.4 478 283.7 C 487.9 278 494 267.4 494 256 v -64 C 494 180.5 487.9 169.9 477.9 164.2 C 467.9 158.5 455.6 158.6 445.7 164.5 C 443.9 152 432.8 143.1 420.2 144.1 C 407.7 145 398 155.4 398 168 v 40 h -56 v -40 C 342 154.7 331.3 144 318 144 C 304.7 144 294 154.7 294 168 v 40 h -8 C 282.1 208 278.8 210.8 278.1 214.7 l -1.6 9.3 h -30.6 C 238.2 224 230.9 227.8 226.4 234.1 C 221.9 240.5 220.8 248.7 223.4 256 h -31.6 l 8.4 -41.9 l 38.5 -24.1 l 8.5 14.1 C 249.4 207.9 254.3 209.1 258.1 206.9 C 261.9 204.6 263.1 199.7 260.9 195.9 l -12.7 -21.2 c 0 0 0 0 0 0 l 0 0 l -11.3 -18.8 C 234.6 152.1 229.7 150.9 225.9 153.1 C 222.1 155.4 220.9 160.3 223.1 164.1 l 7.3 12.2 l -26 16.2 l 17.4 -87 C 222.3 103.2 221.7 100.8 220.2 98.9 C 218.7 97.1 216.4 96 214 96 h -32 C 178.4 96 175.3 98.4 174.3 101.8 l -30.3 106.2 h -114 C 25.6 208 22 211.6 22 216 v 88 C 17.6 304 14 307.6 14 312 v 32 C 14 348.4 17.6 352 22 352 z m 8 -32 h 21.4 C 49 325.1 47.4 330.5 46.6 336 h -16.6 z m 72 64 C 79.9 384 62 366.1 62 344 C 62 321.9 79.9 304 102 304 C 124.1 304 142 321.9 142 344 C 142 366.1 124.1 384 102 384 z m 256 -96 C 330.2 288 306.6 308.5 302.6 336 h -16.1 C 290.5 299.6 321.3 272 358 272 C 394.7 272 425.5 299.6 429.5 336 h -16.1 C 409.4 308.5 385.8 288 358 288 z m 0 96 C 335.9 384 318 366.1 318 344 C 318 321.9 335.9 304 358 304 C 380.1 304 398 321.9 398 344 C 398 366.1 380.1 384 358 384 z m 104 -64 v 16 h -16 v -16 z m 16 -83.1 l -13.5 -4.5 C 462.9 231.9 461.1 231.9 459.5 232.4 l -13.5 4.5 v -15.1 l 16 -5.3 l 16 5.3 z m -16 35.1 C 453.2 272 446 264.8 446 256 v -2.2 l 16 -5.3 l 16 5.3 v 2.2 C 478 264.8 470.8 272 462 272 z m 0 -96 C 470.8 176 478 183.2 478 192 v 12.9 l -13.5 -4.5 C 462.9 199.9 461.1 199.9 459.5 200.4 l -13.5 4.5 v -12.9 C 446 183.2 453.2 176 462 176 z m -48 -8 C 414 163.6 417.6 160 422 160 C 426.4 160 430 163.6 430 168 v 40 h -16 z m -104 0 C 310 163.6 313.6 160 318 160 C 322.4 160 326 163.6 326 168 v 40 h -16 z m -72 80 C 238 243.6 241.6 240 246 240 h 27.9 l -2.7 16 h -25.2 C 241.6 256 238 252.4 238 248 z m -88 -24 C 153.6 224 156.7 221.6 157.7 218.2 l 30.3 -106.2 h 16.2 l -30.1 150.4 C 173.7 264.8 174.3 267.2 175.8 269.1 C 177.3 270.9 179.6 272 182 272 h 96 C 281.9 272 285.2 269.2 285.9 265.3 l 6.9 -41.3 h 137.2 v 69.5 C 408.8 263.2 371 249.5 335.3 259 C 299.7 268.5 273.7 299.2 270.4 336 h -68.2 l -53.6 -76.6 C 147.1 257.3 144.6 256 142 256 h -104 v -32 z m -112 48 h 99.8 l 44.8 64 h -25.2 C 154.4 315.1 139.9 297.7 120 291 C 100 284.2 77.9 289.2 62.9 304 h -24.9 z"/><path d="M 104 328 a 24 24 0 1 0 24 24 a 24 24 0 0 0 -24 -24 z m 0 32 a 8 8 0 1 1 8 -8 a 8 8 0 0 1 -8 8 z"/>
    <path d="M 35 13 S 173 141 173 141 S 173 141 173 141 S 173 141 173 141 S 163 133 163 133" fill="rgb(0, 255, 0)"/></svg>