<svg xmlns="http://www.w3.org/2000/svg" viewBox="0 0 880.69 1023"><defs><style>.cls-1{fill:#13074e;}.cls-2{fill:#13084e;}.cls-3{fill:#221a52;}.cls-4{fill:#498cca;}.cls-5{fill:#f9040a;}.cls-6{fill:#180e50;}.cls-7{fill:#99afdb;}.cls-8{fill:#1d1638;}.cls-9{fill:#5d585d;}.cls-10{fill:#c47792;}.cls-11{fill:#5b8cb4;}.cls-12{fill:#fcfdfb;}.cls-13{fill:#f6f8f7;}.cls-14{fill:#f1f1f1;}.cls-15{fill:#eef7f7;}</style></defs><g id="Layer_2" data-name="Layer 2"><g id="Layer_1-2" data-name="Layer 1"><path class="cls-1" d="M137.42,186.56l-4.21,1a7.48,7.48,0,0,0-6.46,1.41c-12.5,1.72-25,2.65-38.33-.45,4.32-5.13,10.22-6.18,14.74-9.32a2.9,2.9,0,0,0,3-1.49l2.5-1.08,13.22-4.14c-7.27-1.85-13.9-.08-20.51,1.86l-4.73.33-27.26.18L63.25,174l.24-2.56c7.63-5.19,16.36-8.12,24.64-12l2.26-.27c1.57-.09,3.07-1,3.06-2.32s-1.83-.72-2.86-.92c-16.17.53-32.32,2.52-48.52.81l-9-2.23c.11-.89.22-1.77.34-2.65l.17-.1a2.51,2.51,0,0,0,2.88-1.41,156.36,156.36,0,0,1,40.34-12.29c-23.8-2.18-48.2,1.49-72.4-8.73,13.3-6.08,26.18-6.51,40.64-8.59-8.52-3.11-16-3.44-22.65-6.7-5.89-2.9-11.82-5.58-16.47-10.43A18.25,18.25,0,0,1,.74,93.88c-.61-3.76-1.82-8.59,1.38-10.57,2.28-1.41,4.91,3.18,7.43,5,9.7,7.12,20.75,11.21,32.27,14.07,25.48,6.32,51.42,9.64,77.59,11.34a7.18,7.18,0,0,0,5.93.19l7.58.69c6.49,1.43,13.05,1,19.6.7l7.73.1a9.21,9.21,0,0,0,7.4,0l30.13.2a11.65,11.65,0,0,0,7.92.07l6.42,0,.29-.07,1.52.44c4.69,5.18,8.73,10.86,15.16,14.41,11.13,6.14,23.13,8.21,35.53,8.57,12.82.36,25.69-.24,38.39,2,5.18.92,10.9,1.52,14.65,5.33,2.88,2.91-1.16,7.12-.33,10.84a3.12,3.12,0,0,1,.06.75c.32,20,19.73,42.78,41,48,3.14.77,6.39,2.22,10.78.53-6.79-4.24-12.66-7.75-18.36-11.51-18.67-12.3-26-29.54-21-50,1-4.09-1-5.46-3.75-7-9.61-5.23-20.24-5.8-30.76-6.39-26.95-1.53-54.56.3-78.29-16.47-.91-1.17-1.18-3.66-3.6-1.79v-.41c1.41-4.83-3.08-10,1.36-15.23,7,12.21,19,12.51,30.74,12.83,21.35.58,42.78-.85,64,1.79,15.49,1.92,30.84,5,42.57,16.8,4.49,8.79,4.8,17.11-2.7,24.6-.27.28-.12,1-.19,1.47-2.09,13.66,6.14,29.81,18.4,35.82,3.71,1.82,7.86,2.69,11.74,3.91a17.06,17.06,0,0,0,13.19-.95c7.47-4.09,15.55-1.55,21.13,7.45-3.48,0-6.39-.06-9.3,0-1.79.05-3.5,0-2.87,2.92,1.86,8.57,5.68,12,14.12,12.12-.13,3.94-1.55,6.67-3.92,10.24-3.27,4.94-10.22,5.44-11.42,11.54-11.33.1-22.67.53-34,.25-22-.57-43.61-3.36-63.95-12.8-4.17-1.94-6.75-6.82-12.08-6.34l.1.07c.9-2.82-1.89-3.2-3.15-4.34-6.25-5.62-10.95-12.31-15.25-19.5-2.89-4.83-.28-13.13-6.85-14.69-5.25-1.25-11.34,1.35-17.1,1.77-15.35,1.1-31.3,2.69-44.72-6.19-8.18-5.42-14.74-5.56-23.4-2.51C166,178.87,151.6,182.44,137.42,186.56Z"/><path class="cls-2" d="M484.93,192.33c4.52.84,4.52.84,5.59-6.63,2.92-.46,4.36,1.93,4.93,3.73,2.26,7.13,7.11,5.83,12,4.07,20.91-7.44,31-31.05,19.36-47.91-3.14-4.56-2.33-7.93,1.34-11.85,14.5-15.48,33.39-20.14,53.31-21,19.58-.82,39.22-.07,58.84,0,15.13.08,20.34-1.93,30.28-12,2.68,6.69,1.32,12.3-3.55,17.23-10.92,7.62-22.88,12.44-36.23,13.57-10.55.89-21.08,1.55-31.68,1.47-12.86-.11-25.68.53-38,5-5,1.82-7,4.47-4.78,10.28,3.28,8.68,1.74,17.32-2.78,25.43-6.06,10.87-15,18.73-25.39,25.28-4,2.52-9,3.67-13.24,8.53,13.42.15,23.38-5.26,32.1-12.4,12.71-10.39,22.19-23.21,19.92-40.83-.88-6.8,1.49-8.75,7.26-10.33,15.13-4.13,30.51-2.59,45.83-2.93,19.44-.42,37.68-3.91,49.57-21.73l12.1-.24a41.66,41.66,0,0,0,15.06.25l28.87.39a5.38,5.38,0,0,0,5.88,0l33.1-1.11a91,91,0,0,0,25.87-1.81l9-1.17a20.45,20.45,0,0,0,11.23-1.25c24.43-3.48,48.85-6.95,68.58-24.1,3.54,10.41.27,19.13-9.64,25.32A67.92,67.92,0,0,1,846,125c-2.69.5-6.25-.27-8,3.45,12.56,1.59,25.09,2.42,37.7,8.77-24.54,9.2-49,5.47-73.15,6.81,15.81,3.47,31.32,7.12,46.12,17-22.62,7-44,2.11-65.74.23,11.29,6.43,24.49,9.08,35.56,19.25-18.67,2.18-35.73,1.85-52.91-1.63,7.79,6.26,18.36,7.75,25.9,15.81-16.26,3.61-31.24.93-46.19-2.39-10.49-4.77-21.85-6.84-32.7-10.5-5.61-1.89-11.09-4.57-17.21-4.72l.12.07c-3-3.45-6.06-3.7-9.7-.68-6.36,5.27-14,7.89-22,9.07a112.8,112.8,0,0,1-40.41-1.69c-4.13-.89-7.69-1.49-9,4.42-3.9,18-16,29-32.11,36.33s-32.85,11.07-50.52,10.06c-10-.57-18.3,1.67-24.08,10.62-4.56,7.07-11.69,10.79-19.46,13.42-1.17-6.33,3.75-6,8.21-6.08-1.89-2.35-3.45-2.66-5.31-2.24a1.72,1.72,0,0,1-2.16-1.54c-.2-1.18.74-1.5,1.68-2,9.13-4.95,15.5-12.14,18.22-22.39.71-2.67-.37-4.18-2.07-5.88-2.34-2.34-3.48-.09-5,1-2.22,1.69-3.52,4.73-7.59,5.08,0-5.9.43-11.43-.17-16.84-.33-3-.09-8.94-6.53-4.4-3.06,2.16-5.26.85-5.33-3.07C482.17,197.37,481.59,194.18,484.93,192.33Z"/><path class="cls-3" d="M636.07,340.25c5-.79,6.77,1.55,7.71,6.46C662,441.62,661,536.5,642.49,631.13c-12.49,63.72-33.27,124.81-61,183.67-33,70.19-76.26,133.61-125,193.55-1.59,1.95-3.39,3.72-5.07,5.59-11,12.21-10.91,12.15-21.91-.61A892.35,892.35,0,0,1,304.89,825a783.52,783.52,0,0,1-65.22-190.15C229.45,584.86,225,534.29,225.06,483.24c0-46.53,5.21-92.41,13.79-138,.84-4.49,2.22-6.37,7.19-6.22,12.84.39,25.69.11,38.53.1l.56.21.41-.44,3.11-.71c.42,2.19,1.35,4.37.09,6.58-11.33-.13-22.68.07-34-.51-6.08-.31-8.08,1.95-9.19,7.74a727.83,727.83,0,0,0-11.71,178.89c5,86.69,25.52,169.67,59.48,249.25,35,82.09,82.63,156.5,141.26,223.82,6.39,7.33,6.42,7.34,12.91-.27C492.58,950.79,532.09,894.16,564,832.33a779.16,779.16,0,0,0,70.67-198.52,720.31,720.31,0,0,0,14.57-125.16,699.83,699.83,0,0,0-13.35-162.22c-9.64-3.22-19.65-.6-29.41-1.85-1.85-.24-4.52,1.28-5.37-1-.93-2.52,1.73-3.81,3.36-5.28l1.91,1.4c.76,1.06,1.66.79,2.59.28l24.74.34Zm16.1,174.62h1.51V444.35l-1.51,0Z"/><path class="cls-4" d="M742.69,197.13c-6,11-17.05,13.57-27.83,15.9-20,4.32-40.06,2.5-60.05-.25-3.43-.48-5.93-1-6.64,3.38-4.24,25.91-23.09,37.55-45.14,45.9-29.83,11.31-60.92,12.56-92.31,11.37-2-.08-4.89-2.07-5.93,1-.77,2.26,1.44,4.29,3,5.71,5.26,4.69,10.56,9.48,18.34,9.34,1.42,0,3.34-.5,4,1.31.71,2.11-1.19,3.08-2.57,4.1-2.31,1.72-5.19,1.75-7.82,2.53-4.84,1.45-1.41,2.73.22,4,2.9,2.73,7.07,1.14,10.58,3.1-2.29,3.52-5.81,3.2-8.74,2.58-7.29-1.53-12.08-1.35-8.25,8.19.47,1.15-.48,2.87-.77,4.32-1.22,3.18-3.62,3.61-6.55,2.86a5.6,5.6,0,0,0,1.61-6.07c-2.17-7.55-17.43-17.81-25.06-16.66-10.82,1.64-20.57,9.71-32.41,5.39-.5-.18-1.37.53-2,.88a7.09,7.09,0,0,1-8.44-.63c-6-4.88-14.84,1.52-20.49-5.1-.2-.24-2.18.93-3.24,1.58a3.44,3.44,0,0,1-4.23-.22c-6.71-5.91-13.51-3.09-20.33-.37-5.58-1.56-9.67,4.33-15.19,3-2.83-3-5.81-.95-8.88-.49s-7.68,2.28-8.59-1.08c-1.1-4.08,4.26-3.18,6.72-4.59,2.29-1.76,2.19-3.87.34-5.67s-2-3.28-.59-5.19l3.25-2.59a14.81,14.81,0,0,0,8.16,1.39l.13.39-.34.25c0,1.58.89,2.26,2.37,2.35,8,4.76,16.93.9,23.22-1.74,7.55-3.17,15.05-7,23-9.8,6-2.11,11.93-4.47,17.89-6.71,20.24,3.3,38.11-4.28,55.56-12.73,5.11-2.48,10.41-6.59,13.16-11.37,3.73-6.49,8.69-8.61,15.23-8.86,11.75-.46,23.45.44,35.12-2.95,24.77-7.19,47.5-16.34,54.94-44.64.85-3.23,3.05-4.7,6.25-3.58,11.25,3.91,22.9,2.33,34.4,2.59,10.09.23,19.28-3.1,27.45-8.7a17.15,17.15,0,0,1,10.34-3.4l-.12-.07a9,9,0,0,0,6.63,5.5c10.91,1.77,20.84,6.47,31.35,9.26C737.23,192.85,740.34,194,742.69,197.13Z"/><path class="cls-4" d="M373.23,273.87a302.4,302.4,0,0,1-47.47,1.38C296,274,268.49,266.75,248,242.93A53.78,53.78,0,0,1,236,218.88c-2.08-9.68-2-9.78-11.72-8.17a151.8,151.8,0,0,1-59.86-2c-5.86-1.37-11.71-3-16.37-7.23-.63-1.46-1.5-2.63-3.3-2.63l-.1-.1a5.89,5.89,0,0,0-4.35-4.64l0,0c-.35-4.89,3.14-6.51,6.84-7.54,14-3.89,28-7.57,42-11.43,2.26-.63,4.29-1.23,6.41.33,18.1,13.26,38.62,12.7,59.09,9.08,8.59-1.52,12,.55,13.26,8.63a18.8,18.8,0,0,0,3.39,7.44c5.21,7.46,9.46,16,19.17,18.89l-.1-.06c1.52,3.39,4.44,5.2,7.54,6.93,9.48,5.31,19.71,8.55,30.13,11.28,19.22,5,38.85,2.74,58.33,3.24,4,.1,8.05-.28,11.66,2-1.95,9.18-4.62,17.7-16.1,18.78-2.78.26-3.94,2.72-5.33,4.74C369.51,266.33,375.08,271.71,373.23,273.87Z"/><path class="cls-2" d="M492.47,85.76l-1.2,5.59-.37.27.23.41c-6.15,20.48-17,37.93-33.37,51.87-8.49.72-11.33-1.27-8.37-6.63,3.74-6.79,2.34-13.59,2.41-20.38s-.09-12.73,6.69-16.94c3.17-2,4.58-5.58-1-7.57-3.9-1.39-5.75-4.35-5.55-8.72.23-5.25.25-10.53,0-15.77-.23-4.27,1.41-6.08,5.62-5.63,1.36,2.46,2.24,5.08,5.45,1.16,5.83-7.09,12.31-13.63,18.25-20.64,3.46-4.08,6.95-5.42,11.48-2l.07.69A35.34,35.34,0,0,0,494.34,56a106,106,0,0,1-.62,21.59A15.64,15.64,0,0,0,492.47,85.76Z"/><path class="cls-5" d="M391.56,82c-2.57-13.53-1.2-27.06.06-40.59.14-1.48.14-3.08,2.09-3.5l39.87.35L433.64,78c-3.12.18-4.46,2.74-6.24,4.68-6.86,7.48-13.88,14.83-20.47,22.53-3.89,4.53-6.14,3.17-7.84-1.42C396.44,96.57,394.06,89.29,391.56,82Z"/><path class="cls-6" d="M291.48,334.57a8.09,8.09,0,0,1-1.13-.78l-1-1c-2.14-2.73-.36-4.85,1.41-6.55,6.05-5.81,10.64-14.86,21.65-10.5,7.26-6.7,13.19,0,19.91,1.46,9.72,2.07,18.84-1,26.14-8.22,2.17-.43,4.39-.68,6.5-1.31,4.79-1.46,6.18.45,5.22,5-2,1.41-4.1,2.79-6.11,4.24-8.28,6-8.1,9.83.95,14.34,3,1.5,5.65,3.1,7.2,6.15-4.47,3.54-9.13,2.8-13.52.14-2.82-1.71-5.46-3.79-8.85-2.35-4.12,1.76-8.25,1-12.42.74-2.31-1.44-4.47-3.25-7-4.24-5.52-2.19-10.8-2.76-13.41,4.38a1.26,1.26,0,0,0-1,.23c-4.44-5.22-7.24,2.78-11.21,1.38C300.07,338.11,296.23,334.38,291.48,334.57Z"/><path class="cls-6" d="M597.79,331.83l1.39,2.3c-10.5,8.11-10.5,8.11-14.11,1.62l0,.19-1.49-2.22c-1-2.15-2.65-3.17-4.66-1.86-1.75,1.15-1.18,3,0,4.48-.41,7.88-6,2.63-9.16,3.63l-2.66-1c-4.67-11.92-8.84-13-18.36-4.94-1,.8-2,1.49-3,2.24-2.46-.3-4.9-.74-7.37-.86-3.58-.19-7.09.09-9.36,3.52l0,0c-7.55-.38-15.09-.57-22.47,1.57-1.76-6.63,1.14-8.39,7.39-7.71,4.86.53,10.11-.43,12.06-5.45,1.67-4.3-2.45-6.45-5.7-8.36-1.75-2.55-5.37-5.66-2.76-8.14,1.89-1.78,6.59-1.38,9.52,1.27,1.61,1.47,2.67,3.65,5.14,4l0,0c1,2.18,3,2.29,5,2.46l4.12.8H544c2.32.09,4.64.2,6.72-1.13a2.73,2.73,0,0,0,2.88-1.55c5-2.55,9.87-5.32,14.69.35a3.41,3.41,0,0,0,4.16.83c10.21-6.57,14.37,2.88,20.29,7.56a21.2,21.2,0,0,1,2.85,3.43l.72,1,.52.69C597.16,331,597.48,331.43,597.79,331.83Z"/><path class="cls-6" d="M415.6,216.48c-8.44-.15-12.26-3.55-14.12-12.12-.63-2.89,1.08-2.87,2.87-2.92,2.91-.08,5.82,0,9.3,0-5.58-9-13.66-11.54-21.13-7.45a17.06,17.06,0,0,1-13.19.95c-3.88-1.22-8-2.09-11.74-3.91-12.26-6-20.49-22.16-18.4-35.82.07-.5-.08-1.19.19-1.47,7.5-7.49,7.19-15.81,2.7-24.6,8.74,7.59,8.68,7.56,3.92,17.71-5.66,12.09-4.34,23.56,3.92,34s19.76,12.37,33.47,11.33l-6.59-8.43c11.85-2.2,19.44,6.12,28.16,10.45,1.16-2.2.2-3-.61-4-1.08-1.27-2.93-2.57-1.46-4.43,1-1.31,2.89-.76,4.27-.31,3.54,1.16,5.72,1.3,5.06-3.71s2.7-5.5,6.29-4.06a59.37,59.37,0,0,1,10.69,5.51c2.7,1.79,5.09,2.14,5.68-1.23,1.69-9.65,6.33-4.27,10.37-2.36a7.32,7.32,0,0,1-5.31,6.26c-3.94.91-4.19,3.33-4.14,6.37a9.46,9.46,0,0,1-6.85-2,6.3,6.3,0,0,0-8.21.73c-2.24,2.11-4.63,4.21-1.49,7.4l.05,0c-.25,4.55-5.14,1.76-6.91,4.44,4.85,6.75,9,13.87,8.32,22.69l-6.87-.44c2-12.12-3.14-19.48-13.51-19.14.59,3.13,4.6,2.91,5.48,5.64Z"/><path class="cls-7" d="M669.67,119.32c-11.89,17.82-30.13,21.31-49.57,21.73-15.32.34-30.7-1.2-45.83,2.93-5.77,1.58-8.14,3.53-7.26,10.33,2.27,17.62-7.21,30.44-19.92,40.83-8.72,7.14-18.68,12.55-32.1,12.4,4.25-4.86,9.24-6,13.24-8.53,10.41-6.55,19.33-14.41,25.39-25.28,4.52-8.11,6.06-16.75,2.78-25.43-2.19-5.81-.25-8.46,4.78-10.28,12.3-4.42,25.12-5.06,38-5,10.6.08,21.13-.58,31.68-1.47,13.35-1.13,25.31-5.95,36.23-13.57ZM546,191.18a12,12,0,0,0,7.43-7.72c7.63-5.44,10-13.64,10.35-22.2.84-18.58.56-18.63,18.8-22.24a49.77,49.77,0,0,1,8.93-1c12.57-.18,25.17.16,37.73-.39,7.42-.33,14.89-1.68,21.12-6.39-4,.25-7.79,1.45-11.66,2.09-18.34,3-36.88,2.79-55.37,3.09-7.16.12-13.83,2.16-20.53,4.23-3.69,1.14-5.08,3-3.55,7.27,3.56,9.87,1.48,19.26-3.73,28.12-1.27,2.16-2.67,4.29-2.55,7-3.91,1.13-6.21,3.89-7.62,7.54-.26.32-.8.81-.73.91C545.24,192.32,545.63,191.63,546,191.18Zm-3.88,3.4-.34-.23-.05.35Z"/><path class="cls-8" d="M445.79,192.2c0-3,.21-5.46,4.15-6.37a7.32,7.32,0,0,0,5.31-6.26l6.49,5.39c-1.94,1.38-5,2.27-2.89,5.64,1.74,2.8,3.56,5.26,7.64,4.79,4.29-.48,3.38-3.52,3.68-6.1,4.15-.19,8.45.78,12.3-1.63a7.6,7.6,0,0,1,2.46,4.68c-3.34,1.84-2.76,5-2.71,8,.07,3.92,2.27,5.23,5.33,3.07,6.44-4.54,6.2,1.4,6.53,4.4.6,5.41.17,10.94.17,16.84,4.07-.35,5.37-3.39,7.59-5.08,1.47-1.12,2.61-3.37,5-1,1.7,1.7,2.78,3.21,2.07,5.88-2.72,10.25-9.09,17.44-18.22,22.39-.94.51-1.88.83-1.68,2a1.72,1.72,0,0,0,2.16,1.54c1.86-.42,3.42-.11,5.31,2.24-4.46.09-9.38-.25-8.21,6.08-2.63,1.37-5.2,2.87-7.9,4.08-11.4,5.11-23.57,5.42-35.75,5.55-1.43,0-2.71-.33-3.27-1.87,5.53-3.72,11.84-3.4,18.08-3.61,9.53-.33,18.64-1.87,25.82-9.34-2.8-2-6.52.07-8.69-3.83,11.05-4.15,21.45-9,24.9-22.9-3.91,1.5-5,5.2-8.27,5.17-6.92,1.81-3.77-4.17-5.15-6.65,1.51-4,3.37-7.91,3.07-12.33-.11-1.66.81-3.85-1-4.86-2.17-1.19-2.86,1.34-4.09,2.36-2.55,2.1-5.11,4.14-8.52,4.57-1.7.21-3.78.82-4.81-1-.92-1.61.86-2.66,1.79-3.76,2.83-3.4,4.81-7.16,4.14-11.71-.59-4-2.31-6.42-6.35-2.81-3.66,3.27-7.19,6.71-11.47,10.72-1.72-5.12-1.88-9.93-4.22-14.13-2.92-5.27-5.1-5.35-7.64,0l-2.75.17Z"/><path class="cls-8" d="M457.49,62.26c-4.2-.45-5.84,1.36-5.61,5.63.27,5.24.25,10.52,0,15.77-.2,4.37,1.65,7.33,5.55,8.72,5.62,2,4.21,5.6,1,7.57-6.78,4.21-6.61,10.26-6.69,16.94s1.33,13.59-2.41,20.38c-3,5.36-.12,7.35,8.37,6.63a12.33,12.33,0,0,1-5.11,4.83c-6.9-2.5-13.85-2.13-20.81-.35a20.34,20.34,0,0,1-7.41-7.07c4.63.12,6.75-1.71,6.47-6.75-.4-7.28-.11-14.6-.12-21.9,0-12.55-.3-12.9-12.6-14.71l15.5-17.89c3.33,3.93.18,9,2.26,13.11l-1.26,1.89c-2.16-1.22-4.53-.75-4.37,1.63.2,3,2.68,1.55,4.38.85,1.06.28,2.14,1,1.79,2-4.64,12.66-.63,25.5-1,38.24-.11,4.11,2.19,4.33,5.21,4.41,2.59.07,5.42.53,5.33-3.25-.31-13,1.44-25.92-.12-38.87,2.75-2.94,6.7-.19,9.77-2.09,0-5.43-8.57-2.7-8.18-8.47,0-1.51.05-3,.08-4.54a42.82,42.82,0,0,0,.54-19.69l0-8.91c1.86-2.74.44-5.88,1.08-8.72.7-3.14-2.17-7.06,2-9.44a.77.77,0,0,0,.38.9l.3,14.75c-.12,1.53-2.56,2.79-.64,4.55,2.69.13,3.19-4.16,6.56-2.87Q457.64,58.88,457.49,62.26Z"/><path class="cls-2" d="M418.18,98c12.3,1.81,12.6,2.16,12.6,14.71,0,7.3-.28,14.62.12,21.9.28,5-1.84,6.87-6.47,6.75h0c.29-2.3-.72-3.36-3-3.2l.1.09c.18-2.28-.93-3.29-3.16-3.18l-1.4-1.39.17.27-1.41-2.16c-1.77-7.58-9.12-13-8.33-21.59l.16,0c1.87.08,2-1.24,2-2.59l5.56-6.1c2.26,0,3.62-.78,3.11-3.33Z"/><path class="cls-7" d="M290.34,219.44c-9.71-2.91-14-11.43-19.17-18.89a18.8,18.8,0,0,1-3.39-7.44c-1.27-8.08-4.67-10.15-13.26-8.63-20.47,3.62-41,4.18-59.09-9.08-2.12-1.56-4.15-1-6.41-.33-14,3.86-28,7.54-42,11.43-3.7,1-7.19,2.65-6.84,7.54-3.73-1.44-2.71-4.67-2.81-7.48,14.18-4.12,28.55-7.69,42.45-12.58,8.66-3,15.22-2.91,23.4,2.51,13.42,8.88,29.37,7.29,44.72,6.19,5.76-.42,11.85-3,17.1-1.77,6.57,1.56,4,9.86,6.85,14.69,4.3,7.19,9,13.88,15.25,19.5C288.45,216.24,291.24,216.62,290.34,219.44Z"/><path class="cls-9" d="M451.19,38.22c-4.16,2.38-1.29,6.3-2,9.44-.64,2.84.78,6-1.08,8.72-.24-8-.54-16-.68-23.94-.14-7.52-4.24-13.61-5.92-22.52-3.19,6.66-3.65,11.43-4.3,16.12s-.9,9.4-1.32,14.1l-2.32-1.84L393.71,38c9.26-2.83,18.7-.58,28.05-1,13.2-.52,10.28.36,11.75-10.81C434.67,17.42,435.08,8.1,444.32,0c-.52,13.85,7.44,24.25,7,36.69C451.3,37.2,451.25,37.71,451.19,38.22Z"/><path class="cls-10" d="M585.07,335.75c3.61,6.49,3.61,6.49,14.11-1.62l5.29,4.14c-1.64,1.46-4.3,2.75-3.37,5.27.85,2.32,3.52.8,5.37,1,9.76,1.25,19.77-1.37,29.41,1.85L597,346.12c-1-2,3.53-4.71-.56-6-1.69-.53-2.75,1.53-3.25,3.32-1,3.68,1.23,3.33,3.54,3-.39,2.82-2.66,5.18-4.7,5.16-4.36,0-.69-3.28-1.26-5a2,2,0,0,0-1.58-.95c-4,.33-8.44-1.39-11.54,3.19-2.09,3.08-5.52,6.82-9.22,4.6s2.13-5.49,1.17-8.68c.47-1.6-1.91-3.29.16-4.83,3.14-1,8.75,4.26,9.16-3.62a3.11,3.11,0,0,1,3.34.88C585.85,341.72,584.64,337.19,585.07,335.75Z"/><path class="cls-10" d="M451.19,38.22c.06-.51.11-1,.17-1.53,9-.14,18-.7,26.94.51a32.74,32.74,0,0,0,8.79,0c2.33-.31,6-1,5.59,3.6-4.53-3.48-8-2.14-11.48,1.94-5.94,7-12.42,13.55-18.25,20.64-3.21,3.92-4.09,1.3-5.45-1.16q.13-3.37.29-6.71c-3.37-1.29-3.87,3-6.56,2.87-1.92-1.76.52-3,.64-4.55,2.73-1.19,4.26-6.1,8-3.59,2.48,1.67,0,6.16,2.76,8.95l16.93-20.11h-28A.77.77,0,0,1,451.19,38.22Z"/><path class="cls-10" d="M291.48,334.57c4.75-.19,8.59,3.54,13.39,3.1l8.42,3,1.46,1.25c.34.95.69,1.9,1,2.85-2.77,2,2.32,6.34-1.89,7.56s-6.15-1.9-7.76-5.26a3.54,3.54,0,0,0-3.89-1.62c-2.15.3-1.61,1.95-1.65,3.42-.16,5.2-3.34,3-4.51,1.21-1.86-2.93-3.77-5.09-7.35-5.35,1.26-2.21.33-4.39-.09-6.58C290,337.3,292.5,337.32,291.48,334.57Z"/><path class="cls-3" d="M376.47,266.38c1.39-2,2.55-4.48,5.33-4.74,11.48-1.08,14.15-9.6,16.1-18.79l2.23-1.19,2,2.17c-1.12,2.45-2.58,4.82-3.3,7.39-1.2,4.33,1.53,3.73,4.19,2.88l3,.45c.22.83.44,1.65.67,2.48l-.18,2c-5.8-2.72-9.94,1.34-14.84,3.21-13.75,5.26-16.67,10.49-12.07,23.83-.06.56-.12,1.11-.19,1.67l-2.82-1.05.34-.25-.14-.39a8.11,8.11,0,0,0-2.59-6.37v-5.44A16.52,16.52,0,0,0,376.47,266.38Z"/><path class="cls-10" d="M415.14,101.48l-5.56,6.1a3.15,3.15,0,0,0-2,2.59l-.16,0c-1.3,1.15-2.61,2.28-3.92,3.42-8.06-9-11.6-19.64-11.9-31.53,2.5,7.25,4.88,14.53,7.53,21.72,1.7,4.59,4,5.95,7.84,1.42,6.59-7.7,13.61-15.05,20.47-22.53,1.78-1.94,3.12-4.5,6.24-4.69h.15c0,.7-.08,1.4-.11,2.1L418.18,98l.07.2A4.87,4.87,0,0,0,415.14,101.48Z"/><path class="cls-7" d="M742.69,197.13c-2.35-3.13-5.46-4.28-9.34-5.31-10.51-2.79-20.44-7.49-31.35-9.26a9,9,0,0,1-6.63-5.5c6.12.15,11.6,2.83,17.21,4.72,10.85,3.66,22.21,5.73,32.7,10.5C744.85,194.13,744.35,195.94,742.69,197.13Z"/><path class="cls-7" d="M370.23,312.66c1-4.5-.43-6.41-5.22-5-2.11.63-4.33.88-6.5,1.31-.23-4.4-5-3.45-7-5.93-.74-.95-2.14-1.57-1.75-3s1.85-1.38,3.1-1.46c3.42-.22,7.28.6,8.89-3.81,2.38-.21,4,.42,3.87,3.25-2.46,1.41-7.82.51-6.72,4.59.91,3.36,5.63,1.53,8.59,1.08s6.05-2.5,8.88.48c-1.54,3.31-3.16,6.6-3,10.4C372.13,314.37,370.85,314.05,370.23,312.66Z"/><path class="cls-7" d="M532.19,316.15c-2.47-.37-3.53-2.55-5.14-4-2.93-2.65-7.63-3.05-9.52-1.27-2.61,2.48,1,5.59,2.76,8.14l-7.53.57c.29-1.45,1.24-3.17.77-4.32-3.83-9.54,1-9.72,8.25-8.19,2.93.62,6.45.94,8.74-2.58-3.51-2-7.68-.37-10.58-3.1,2,0,4-.13,6,.05,4.38.39,13.22-2.22,4.7,7.09C528.49,310.87,531.49,313.6,532.19,316.15Z"/><path class="cls-3" d="M431.84,148.38c7-1.78,13.91-2.15,20.81.35C442.8,158.81,441.15,158.78,431.84,148.38Z"/><path class="cls-11" d="M365.65,298.09c.17-2.83-1.49-3.46-3.87-3.25-5-.62-9.36-2.3-12.26-7a32.84,32.84,0,0,0,15.88-.65c-1.37,1.92-1.18,3.48.59,5.2S367.94,296.33,365.65,298.09Z"/><path class="cls-7" d="M90.39,159.25l-2.26.27c-1.85-3.49-4.67-1.64-7.22-1.33C69,159.68,57,159,45.09,158.65a3.23,3.23,0,0,1-3-1.83c16.2,1.71,32.35-.28,48.52-.81C90.52,157.09,90.46,158.17,90.39,159.25Z"/><path class="cls-3" d="M482.47,187.66c-3.85,2.41-8.15,1.44-12.3,1.63l-.08-.06c-.41-.95-.82-1.9-1.24-2.85a11.4,11.4,0,0,1,1.33-1.72C478.08,177.69,478.35,177.76,482.47,187.66Z"/><path class="cls-6" d="M470.17,189.29c-.3,2.58.61,5.62-3.68,6.1-4.08.47-5.9-2-7.64-4.79-2.08-3.37.95-4.26,2.89-5.64a3.44,3.44,0,0,1,2.54,2.38c1.22,2.84,3.75,1.64,5.81,1.89Z"/><path class="cls-7" d="M69.37,174.87l27.26-.18C87.56,177.45,78.48,178.56,69.37,174.87Z"/><path class="cls-8" d="M403.46,113.57c1.31-1.14,2.62-2.27,3.92-3.42-.79,8.57,6.56,14,8.33,21.59-3.44-2.39-5.13-6.22-7.7-9.32.25-.77,0-1.21-.83-1.27l-2.1-3.58c.23-1-.12-1.62-1.19-1.76Z"/><path class="cls-7" d="M101.36,174.36c6.61-1.94,13.24-3.71,20.51-1.86l-13.22,4.14C107.7,171.14,103,177.81,101.36,174.36Z"/><path class="cls-7" d="M790.55,116.77a91,91,0,0,1-25.87,1.81C773.16,116,781.86,116.42,790.55,116.77Z"/><path class="cls-11" d="M374.21,279.66A8.11,8.11,0,0,1,376.8,286a14.79,14.79,0,0,1-8.15-1.39C369.55,281.92,372,280.9,374.21,279.66Z"/><path class="cls-7" d="M152.52,115.32c-6.55.26-13.11.73-19.6-.7C139.5,113.59,146.06,112.88,152.52,115.32Z"/><path class="cls-10" d="M494.34,56a35.34,35.34,0,0,1-1.59-14.44A26.6,26.6,0,0,1,494.34,56Z"/><path class="cls-7" d="M696.83,119.33a41.66,41.66,0,0,1-15.06-.25C686.81,117.75,691.84,117.47,696.83,119.33Z"/><path class="cls-7" d="M810.73,114.35a20.45,20.45,0,0,1-11.23,1.25C803,113.06,806.87,113.69,810.73,114.35Z"/><path class="cls-7" d="M167.65,115.44a9.21,9.21,0,0,1-7.4,0A5.57,5.57,0,0,1,167.65,115.44Z"/><path class="cls-11" d="M376.47,266.38a16.52,16.52,0,0,1-2.26,7.84l-.59.1-.39-.45C375.08,271.71,369.51,266.33,376.47,266.38Z"/><path class="cls-7" d="M125.34,113.93a7.18,7.18,0,0,1-5.93-.19C121.44,112.27,123.42,112,125.34,113.93Z"/><path class="cls-7" d="M731.58,119.69a5.38,5.38,0,0,1-5.88,0A4,4,0,0,1,731.58,119.69Z"/><path class="cls-8" d="M470.09,189.23c-2.06-.25-4.59,1-5.81-1.89,1.8,1,3.29.47,4.57-1C469.27,187.33,469.68,188.28,470.09,189.23Z"/><path class="cls-10" d="M492.47,85.76a15.64,15.64,0,0,1,1.25-8.21A9,9,0,0,1,492.47,85.76Z"/><path class="cls-7" d="M140.27,194.08a5.89,5.89,0,0,1,4.35,4.64C141.82,198.43,140.39,196.87,140.27,194.08Z"/><path class="cls-7" d="M126.75,189a7.48,7.48,0,0,1,6.46-1.41C131.37,189.46,129.15,189.62,126.75,189Z"/><path class="cls-7" d="M205.7,115.71a11.65,11.65,0,0,1-7.92-.07A10.22,10.22,0,0,1,205.7,115.71Z"/><path class="cls-7" d="M33.44,151.94c-.12.88-.23,1.76-.34,2.65-1.71,1.29-2.32-.15-2.3-1.26C30.83,151.82,32.06,151.47,33.44,151.94Z"/><path class="cls-8" d="M421.41,138.11c2.31-.16,3.32.9,3,3.2A5.22,5.22,0,0,1,421.41,138.11Z"/><path class="cls-7" d="M537.18,318.63c-2-.17-4-.28-5-2.46C534,316.74,536.68,315.5,537.18,318.63Z"/><path class="cls-8" d="M418.35,135c2.23-.11,3.34.9,3.16,3.18A4.36,4.36,0,0,1,418.35,135Z"/><path class="cls-7" d="M63.49,171.48,63.25,174c-1.16.27-2.06-.13-1.94-1.36S62.36,171.15,63.49,171.48Z"/><path class="cls-7" d="M144.72,198.82c1.8,0,2.67,1.17,3.3,2.63A3.15,3.15,0,0,1,144.72,198.82Z"/><path class="cls-10" d="M403.89,115.81c1.07.14,1.42.76,1.19,1.76C404.07,117.4,403.42,117,403.89,115.81Z"/><path class="cls-10" d="M609,339.94c-.93.51-1.83.78-2.59-.28C607.32,339,608.2,338.91,609,339.94Z"/><path class="cls-10" d="M636.07,340.25l-2.37,0A1.49,1.49,0,0,1,636.07,340.25Z"/><path class="cls-7" d="M106.15,177.72a2.9,2.9,0,0,1-3,1.49C103.59,177.56,104.68,177.25,106.15,177.72Z"/><path class="cls-7" d="M36.49,150.43a2.51,2.51,0,0,1-2.88,1.41C34.05,150.3,35.11,150,36.49,150.43Z"/><path class="cls-7" d="M553.62,316.76a2.73,2.73,0,0,1-2.88,1.55C551.13,316.73,552.18,316.39,553.62,316.76Z"/><path class="cls-7" d="M544,319.44H541.3C542.21,318.17,543.12,318.14,544,319.44Z"/><path class="cls-10" d="M285.54,338.86l-.41.44-.56-.21C284.75,338.35,285,338.14,285.54,338.86Z"/><path class="cls-10" d="M407.18,121.15c.83.06,1.08.5.83,1.27C407.23,122.32,406.86,122,407.18,121.15Z"/><path class="cls-10" d="M596.33,330l-.72-1C596.35,328.93,596.67,329.21,596.33,330Z"/><path class="cls-10" d="M597.79,331.83c-.31-.4-.63-.79-.94-1.18C597.7,330.62,598,331,597.79,331.83Z"/><path class="cls-7" d="M212.4,115.62l-.28.07,1.26-2.76v.41Z"/><path class="cls-10" d="M289.4,332.83l1,1C289.57,333.92,289.28,333.58,289.4,332.83Z"/><path class="cls-10" d="M491.13,92l-.23-.41.37-.27.43.16Z"/><path class="cls-8" d="M417.12,133.9l-.17-.27Z"/><path class="cls-7" d="M217,115.13c23.73,16.77,51.34,14.94,78.29,16.47,10.52.59,21.15,1.16,30.76,6.39,2.79,1.51,4.75,2.88,3.75,7-5,20.47,2.34,37.71,21,50,5.7,3.76,11.57,7.27,18.36,11.51-4.39,1.69-7.64.24-10.78-.53-21.25-5.18-40.66-28-41-48a3.12,3.12,0,0,0-.06-.75c-.83-3.72,3.21-7.93.33-10.84-3.75-3.81-9.47-4.41-14.65-5.33-12.7-2.27-25.57-1.67-38.39-2-12.4-.36-24.4-2.43-35.53-8.57-6.43-3.55-10.47-9.23-15.15-14.41Zm124.45,77.34.86,1.83a4.61,4.61,0,0,0,.52-.41c-.35-.56-.74-1.1-1.12-1.64-.48-1.08-1.05-2.08-2.42-2.1-.14,0-.41.38-.39.55C339.08,192.19,340.23,192.37,341.43,192.47ZM235.7,129.16a13.51,13.51,0,0,0,8,4.26c11.36,2.4,22.83,3,34.4,2.83,11.83-.16,23.56.18,35,4.32,8.17,3,9.59,4.67,7.86,13-2.27,11,3.7,25.89,14.09,31.49-2.33-3.69-3.87-5.81-5.07-8.1-4.21-8.07-8-16.27-5.54-25.79,2.77-10.53,2.64-10.8-8.19-13.49C289.77,131.13,262.12,136.14,235.7,129.16Zm100.85,58-.35-.25-.06.38Z"/><path class="cls-7" d="M400.13,241.66l-2.23,1.19c-3.61-2.3-7.65-1.92-11.66-2-19.48-.5-39.11,1.78-58.33-3.24-10.42-2.73-20.65-6-30.13-11.28-3.1-1.73-6-3.54-7.54-6.93,5.33-.49,7.91,4.39,12.08,6.33,20.34,9.44,41.93,12.23,63.95,12.8,11.32.28,22.66-.15,34-.25C400.22,239.39,400.17,240.53,400.13,241.66Z"/><path class="cls-8" d="M400.13,241.66c0-1.13.09-2.27.13-3.4,1.2-6.1,8.15-6.6,11.42-11.54,2.37-3.57,3.79-6.3,3.92-10.24l.21-4.9c6.11,4.3,3.37,10.75,3.28,17.29l4.75-3.8,6.88.44.66.59c-1.71,3.76-5,5.33-8.73,6.26a46.07,46.07,0,0,0-20.56,11.47Z"/><path class="cls-12" d="M90.39,159.25c.07-1.08.13-2.16.2-3.24,1,.2,2.85-.37,2.86.92S92,159.16,90.39,159.25Z"/><path class="cls-12" d="M217,115.13l-3,.93-1.53-.44c.32-.76.64-1.52,1-2.28C215.8,111.47,216.07,114,217,115.13Z"/><path class="cls-7" d="M444.57,268.31c12.18-.13,24.35-.44,35.75-5.55,2.7-1.21,5.27-2.71,7.9-4.08,7.77-2.63,14.9-6.35,19.46-13.42,5.78-8.95,14.13-11.19,24.08-10.62,17.67,1,34.49-2.77,50.52-10.06s28.21-18.33,32.11-36.33c1.28-5.91,4.84-5.31,9-4.42a112.8,112.8,0,0,0,40.41,1.69c8.06-1.18,15.66-3.8,22-9.07,3.64-3,6.69-2.77,9.7.68a17.15,17.15,0,0,0-10.34,3.4c-8.17,5.6-17.36,8.93-27.45,8.7-11.5-.26-23.15,1.32-34.4-2.59-3.2-1.12-5.4.35-6.25,3.58-7.44,28.3-30.17,37.45-54.94,44.64-11.67,3.39-23.37,2.49-35.12,2.95-6.54.25-11.5,2.37-15.23,8.86-2.75,4.78-8.05,8.89-13.16,11.37-17.45,8.45-35.32,16-55.56,12.73C443.54,270,444.06,269.13,444.57,268.31Z"/><path class="cls-13" d="M288.74,344.73c3.58.26,5.49,2.42,7.35,5.35,1.17,1.83,4.35,4,4.51-1.21,0-1.47-.5-3.12,1.65-3.42a3.54,3.54,0,0,1,3.89,1.62c1.61,3.36,3.57,6.48,7.76,5.26s-.88-5.52,1.89-7.56l253.8,0c1,3.19-4.83,6.47-1.16,8.68s7.13-1.52,9.22-4.6c3.1-4.58,7.52-2.86,11.54-3.19a2,2,0,0,1,1.58.95c.57,1.68-3.1,4.91,1.26,5,2,0,4.31-2.34,4.7-5.16l.27-.31,38.88.31a699.83,699.83,0,0,1,13.35,162.22,720.31,720.31,0,0,1-14.57,125.16A779.16,779.16,0,0,1,564,832.33c-31.9,61.83-71.41,118.46-116.49,171.32-6.49,7.61-6.52,7.6-12.91.27C376,936.6,328.36,862.19,293.33,780.1c-34-79.58-54.5-162.56-59.48-249.25A727.83,727.83,0,0,1,245.56,352c1.11-5.79,3.11-8,9.19-7.74C266.06,344.8,277.41,344.6,288.74,344.73ZM391.59,446.14l.25,0c.29-1.2-.48-2.36-1.32-2.29-8.92.81-12.29-6.58-17.36-11.49a21.84,21.84,0,0,0-3.05-2.22,98.36,98.36,0,0,0-61.95-17.26,99.64,99.64,0,0,1-21.05-1.29c-6.09-1-7.63.77-8.16,6.75a702.19,702.19,0,0,0,1.19,138.74c1.61,14.7,2.64,29.51,6.93,43.8,1.47,3.39-3.59,6.83.08,10.2,1,4.1,2.06,8.21,3.13,12.3,5.43,20.63,8.78,41.81,16.31,61.89a12,12,0,0,0,2.63,7.77,1.37,1.37,0,0,0,.41,1.25c1.39,9.72,5.2,18.64,9.14,27.52,1.1,5.8,4.21,10.85,6.18,16.34,9.82,27.51,22.53,53.78,36.2,79.56A812.94,812.94,0,0,0,436.55,934c3.37,4.36,5.73,4.58,9.15.12,25.26-33,48.33-67.34,68.23-103.82l1.06-1.6c.23-.41.44-.82.64-1.24,2.56-.66,2.81-2.59,2.62-4.76a12.57,12.57,0,0,0,.49-1.2c3.22-1.19,2.52-4,2.53-6.41,0-7.06.48-14.16-.19-21.16-1.18-12.13,1.24-24.46-2.19-36.43q0-12.6,0-25.2A31.14,31.14,0,0,0,520,728c2.57-23.31,1.36-46.71,1.32-70,0-27.8,2.06-55.67-1.82-83.4l.13-4.07c.14-.17.43-.38.39-.51a6.49,6.49,0,0,0-.48-1.13q-.62-14.31-1.22-28.63c.57-4.7.8-9.37-1.58-13.73-7-22.87-16.78-44-37.39-59.35,8.59-4.29,16.48-7.92,24.08-12.09,13.22-7.25,13.4-16.54.1-23.81-15-8.2-30.89-11.74-47.86-6.23a346.72,346.72,0,0,0-53.33,22.49c-.73-.48-1.08-.23-1.14.58l-.35.24c-2.74.6-5.67,4.6-8.06-.49C393,446.85,393.36,445.77,391.59,446.14Zm196,198.12c.32-1.34.63-2.68,1-4,3.69-2.71,1.64-6.63,2.08-10,2.32-12.11,4.3-24.31,7.1-36.31,1.65-7.07-.81-11.89-6.37-17.35-.75,13.42-1,25.78-7,37-2.29-9.85,0-19.49.83-29.08,1.7-20.1-10.58-37.11-11.48-56.53-.12-2.62-2.65-3.28-5.18-3.25-8.06.11-12.66,3.89-13.36,12.23-.59,7-.29,14-.27,21.09.07,17.6-1.15,35.3,3.41,52.62-2.5,8.58-4.79,17.18-3.4,26.27-.32,32.93-.41,65.86,3,98.78,11.87-26.55,20.49-54,27.22-82C587,650.72,588.16,647.72,587.62,644.26ZM544.15,405.4c-7.22,13.54-6.53,16.37,2.84,27a34.41,34.41,0,0,0,13.38,9.13c1.53.62,3.67,1.12,3.51,3.32-.14,1.88-2.25,1.73-3.52,2.27-8.59,3.65-15.62,9.18-20.53,17.14-3.19,5.16-4.86,10.78-1.11,16.32,2.8,4.14,6.29,7.82,9.44,11.73,2.77,3.43,5.4,4.17,9.53,1.35a184.66,184.66,0,0,0,43.54-41.42c2.39-3.15,4.5-6.51,4.38-11-.43-16.63-2.67-33.1-4.32-49.63-.42-4.22-2.23-5.83-6.8-5.82q-94,.24-188.06,0c-5.3,0-8.24,2.42-7.2,7.07,2.31,10.24-2,22.76,9.72,30a2.43,2.43,0,0,1,.77,2c-1.72,11.71,5.41,6,9.3,4.34,12-5.15,23.67-11.05,36.11-15.28,7.25-2.47,14.79-5.67,17.23-14.32,1-3.69,2.95-1.64,4.47-.77,6.77,3.87,13.59,7.67,20.18,11.84,11.13,7.06,22.11,7.35,33.25.15C534.21,408.32,538.26,405.92,544.15,405.4Zm61.88,99h.42c.17-3.26.47-6.52.48-9.77.06-10.25-7.59-15.16-17.63-12.54-10.32,2.7-17.76,9.5-25.6,15.84-3.18,2.57-5,5.76,1.17,7.09,2.56.55,5.29,1.56,6.47,3.53,3.68,6.11,9.08,7,15.38,6.48,1.43-.12,2.91.77,4.39,1,5.45.69,10.14,9.12,14.37,5.12C608.35,518.38,606,510.16,606,504.4ZM343.24,403.27c-8.51-6.61-15.1-15.06-24.36-17.1-10.32-2.27-21.47-.77-32.27-.8-1.1,0-2.78.57-3.19,1.38-.74,1.45.37,2.76,1.6,3.8C301.65,404.69,320.69,408.18,343.24,403.27ZM599.59,577.69c3.44-15.61,4.19-30.55,5.47-45.42a4.56,4.56,0,0,0-2.48-4.33A34.48,34.48,0,0,0,584.24,522c-3.36,0-6,1.43-3.32,5,8.48,11.4,9.41,25.13,12.42,38.25C594.31,569.47,595.26,573.86,599.59,577.69ZM395.43,416.59c-4.95-10.09-9.4-19.27-13.95-28.4-1.21-2.43-3.51-2.87-5.83-2.07s-2.48,3.09-2.31,5.1c.63,7.58,5.45,14,6,21.7,0,.51,1.49,1.15,2.35,1.32C385.81,415,390,415.67,395.43,416.59ZM589,476.53c5.37.88,9.56,1.35,13.64,2.31,3,.71,4.46-.18,4.32-3.11-.28-6,.91-12.19-1.39-19.13ZM353.36,400.28,355,399c-2.21-3.75-4.29-7.59-6.66-11.23-2-3.09-5.58-3.29-7.76-1.29s0,4.82,1.86,6.32C345.88,395.55,349.7,397.81,353.36,400.28ZM303.46,407c-7.46-4-13.44-4.29-19.38-4.77-1.52-.13-3.18-.24-3.25,1.95a2.49,2.49,0,0,0,2.77,2.8C289.52,407.05,295.44,407,303.46,407Zm67.37,3.58c-.85-5-3.24-8.17-5.18-11.55a2.62,2.62,0,0,0-3-1.57c-1.52.38-1.53,1.6-1.57,2.91C360.89,406.41,363.85,409.55,370.83,410.61Z"/><path class="cls-1" d="M652.17,514.87V444.38l1.51,0v70.52Z"/><path class="cls-14" d="M512.76,319.57l7.53-.57c3.25,1.91,7.37,4.06,5.7,8.36-2,5-7.2,6-12.06,5.45-6.25-.68-9.15,1.08-7.39,7.71l-3.06.13c-.71-4.31-4.13-2.79-6.55-2.82-16-.16-32.08-.17-48.12-.22a15.52,15.52,0,0,0,4.49-5.84c.76-1.8,1.92-2.13,3.33-.56,3.21,3.59,7.19,4.12,11.61,2.93,5-1.34,4.57-6.39,6.79-10.65,2.82,5.11,6.52,7.91,11.86,6.26,6.37-2,3.23-7.59,3.66-12.63a20.57,20.57,0,0,0,10,6.35c.51.64.9.6,1.13-.22l1.58-1.06,2.92.24C509.14,323.18,511.54,322.75,512.76,319.57Z"/><path class="cls-7" d="M506.21,322.43l-2.92-.24c.21-2.34,2.46-4.39.45-7.07-4.75-6.31-11.15-10-18.55-12.17-1.57-.46-3.45,0-4,1.34-1.83,4.4-4.78,3.2-8,2.24-2.46-.72-5.23-.7-7,1.45-3.19,3.86-6.89,3.57-10.76,1.68a8.06,8.06,0,0,0-6.51-.4c-8.24,2.78-15.86-4.82-24.16-1.51-.3.12-.85-.47-1.31-.67-6.76-2.93-15.17.44-21.19-5.51-.3-.29-1.46.15-2.14.42-8.16,3.29-16.54,6.25-21.43,14.41l-2.46-.59c1.74-8.47,10-10.06,15.43-14.58,6.82-2.72,13.62-5.54,20.33.37a3.44,3.44,0,0,0,4.23.22c1.06-.65,3-1.82,3.24-1.58,5.65,6.62,14.48.22,20.49,5.1a7.09,7.09,0,0,0,8.44.63c.66-.35,1.53-1.06,2-.88,11.84,4.32,21.59-3.75,32.41-5.39,7.63-1.15,22.89,9.11,25.06,16.66A5.6,5.6,0,0,1,506.21,322.43Z"/><path class="cls-9" d="M444.57,268.31c-.51.82-1,1.64-1.53,2.46-6,2.24-11.88,4.6-17.89,6.71-7.91,2.77-15.41,6.63-23,9.8C395.9,289.92,387,293.78,379,289c.16-.43.31-.87.45-1.3s.13-1.11.19-1.67c3.89,1.16,4.43-1.5,5.22-4.3.85-3.06,2.15-6,6-6.32,3.31,9.28,5,.27,7.33-1l-7.21,1c4-6.05,10.18-6.67,17.62-7.65-4.11,8.54-11,12.31-18.12,16.75,4.54.64,8.29.93,11.21-1.17,12-8.64,27.5-8.72,39.61-16.88C441.86,268,443.14,268.27,444.57,268.31Z"/><path class="cls-11" d="M391.59,301.23c-5.47,4.52-13.69,6.11-15.43,14.58-1.81,1.7-2.73,1.34-2.72-1.17-.2-3.8,1.42-7.09,3-10.4C381.92,305.56,386,299.67,391.59,301.23Z"/><path class="cls-11" d="M379.42,287.72c-.14.43-.29.87-.45,1.3-1.48-.09-2.37-.77-2.37-2.35Z"/><path class="cls-8" d="M433.58,38.3l2.32,1.84-.12,2c-.2,5.17-.23,10.34-.64,15.49-.53,6.79,1.51,13.75-1.35,20.38h-.15Z"/><path class="cls-14" d="M373.44,314.64c0,2.51.91,2.87,2.72,1.17l2.46.59c3.59,8.43,9.75,3.82,15.91,2.4-.88,3.87-3.33,7.81.18,10.2,6,4.09,10.35-1.55,15.32-4.2,1,4.37.46,8.68,4.23,11.26l.05,2-39.26.09-2.78-.78c-1.55-3.05-4.2-4.65-7.2-6.15-9.05-4.51-9.23-8.34-.95-14.34,2-1.45,4.08-2.83,6.11-4.24C370.85,314.05,372.13,314.37,373.44,314.64Z"/><path class="cls-11" d="M372.27,337.39l2.78.78c.31,2.39-.46,3.85-3.13,3.94-11.77.44-23-3.7-34.7-3.9.09-.76.18-1.53.26-2.29,4.17.24,8.3,1,12.42-.74,3.39-1.44,6,.64,8.85,2.35C363.14,340.19,367.8,340.93,372.27,337.39Z"/><path class="cls-14" d="M337.48,335.92c-.08.76-.17,1.53-.26,2.29L319,338.06c-.62-.66-1.23-1.33-1.84-2,2.61-7.14,7.89-6.57,13.41-4.38C333,332.67,335.17,334.48,337.48,335.92Z"/><path class="cls-8" d="M313.29,340.67l-8.42-3c4,1.4,6.77-6.6,11.21-1.39A4,4,0,0,1,313.29,340.67Z"/><path class="cls-11" d="M313.29,340.67a4,4,0,0,0,2.79-4.39,1.3,1.3,0,0,1,1-.22c.61.67,1.22,1.34,1.84,2-1.53,1.15-1.4,4.1-4.2,3.86Z"/><path class="cls-3" d="M314.75,341.92c2.8.24,2.67-2.71,4.2-3.86l18.27.15c11.69.2,22.93,4.34,34.7,3.9,2.67-.09,3.44-1.55,3.13-3.94l39.26-.09c2.88,2.83,5.84,2.95,8.86.23a22,22,0,0,1,12.46.48c4.75,2.84,9.35,4.18,13.25-1.36l-.07.17c16,.06,32.08.07,48.12.23,2.42,0,5.84-1.49,6.55,2.82,8.71,2.41,17.24,2.18,25.53-1.7l0,0c5.44-1.41,11.27,1.91,16.56-1.35,7.15.74,14.46-.95,21.51,1.39l2.66,1c-2.07,1.53.31,3.22-.16,4.82l-253.81,0C315.44,343.82,315.09,342.87,314.75,341.92Z"/><path class="cls-14" d="M567.1,339c-7.05-2.34-14.36-.65-21.51-1.39a.88.88,0,0,0,.17-1.31c1-.75,2-1.44,3-2.24C558.26,325.93,562.43,327.05,567.1,339Z"/><path class="cls-11" d="M529,339c-8.29,3.88-16.82,4.11-25.53,1.7l3.06-.13C513.92,338.38,521.46,338.57,529,339Z"/><path class="cls-11" d="M545.76,336.27a.88.88,0,0,1-.17,1.31c-5.29,3.26-11.12-.06-16.56,1.35,2.27-3.43,5.78-3.71,9.36-3.52C540.86,335.53,543.3,336,545.76,336.27Z"/><path class="cls-11" d="M585.07,335.75c-.43,1.44.78,6-2.81,1.47a3.11,3.11,0,0,0-3.34-.88c-1.15-1.51-1.72-3.33,0-4.48,2-1.31,3.71-.29,4.66,1.86l1.49,2.22Z"/><path class="cls-10" d="M585.1,335.94l-1.49-2.22Z"/><path class="cls-8" d="M429.25,198.34c-3.14-3.19-.75-5.29,1.49-7.4a6.3,6.3,0,0,1,8.21-.73,9.46,9.46,0,0,0,6.85,2l.33.36c-.49,2.88-2.7,2.84-4.87,2.87-.82-.53-1.68-1-2.45-1.61-1.33-1-2.4-3.28-4.31-2.26-2.41,1.29-.74,3.68-.33,5.38.88,3.67,2.27,7.21,3.57,11.17-3.66-.51-5-4.85-8.85-3.06,2.63,6.85,7.44,13.44,2.49,21l-.66-.59c.65-8.82-3.48-15.94-8.33-22.69,1.77-2.68,6.66.11,6.91-4.44.54-.55,1.88-.88.53-1.94Z"/><path class="cls-11" d="M423.84,225.07l-4.75,3.8c.09-6.54,2.83-13-3.28-17.29-.88-2.74-4.89-2.52-5.48-5.65C420.7,205.59,425.84,213,423.84,225.07Z"/><path class="cls-11" d="M553,183c-.12-2.68,1.28-4.81,2.55-7,5.21-8.86,7.29-18.25,3.73-28.12-1.53-4.24-.14-6.13,3.55-7.27,6.7-2.07,13.37-4.11,20.53-4.23,18.49-.3,37-.08,55.37-3.09,3.87-.64,7.64-1.84,11.66-2.09-6.23,4.71-13.7,6.06-21.12,6.39-12.56.55-25.16.21-37.73.39a49.77,49.77,0,0,0-8.93,1c-18.24,3.61-18,3.66-18.8,22.24-.39,8.56-2.72,16.76-10.35,22.2Z"/><path class="cls-11" d="M553.47,183.46a12,12,0,0,1-7.43,7.72c-.21-.22-.43-.44-.66-.65,1.42-3.65,3.72-6.41,7.63-7.54Z"/><polygon class="cls-11" points="542.16 194.58 541.77 194.7 541.82 194.35 542.16 194.58"/><path class="cls-11" d="M546,191.18c-.41.45-.8,1.14-1.38.26-.07-.1.47-.59.72-.91C545.61,190.74,545.83,191,546,191.18Z"/><path class="cls-14" d="M431.38,226.1c4.95-7.61.14-14.2-2.49-21,3.87-1.79,5.19,2.55,8.85,3.06-1.3-4-2.69-7.5-3.57-11.17-.41-1.7-2.08-4.09.33-5.38,1.91-1,3,1.22,4.31,2.26.77.6,1.63,1.08,2.45,1.61,1.83,1.92,2.33,5,6.05,6.48.55-3.36,1.06-6.44,1.57-9.52,2.54-5.38,4.72-5.3,7.64,0,2.34,4.2,2.5,9,4.22,14.13,4.28-4,7.81-7.45,11.47-10.72,4-3.61,5.76-1.18,6.35,2.81.67,4.55-1.31,8.31-4.14,11.71-.93,1.1-2.71,2.15-1.79,3.76,1,1.79,3.11,1.18,4.81,1,3.41-.43,6-2.47,8.52-4.57,1.23-1,1.92-3.55,4.09-2.36,1.82,1,.9,3.2,1,4.86.3,4.42-1.56,8.34-3.07,12.33a25.49,25.49,0,0,0-3.25,3.93c-1.21,2.27-5.55,4.12-3.56,6.49,2.15,2.56,6,.4,9-.72a4,4,0,0,0,2.94-3c3.31,0,4.36-3.67,8.27-5.17-3.45,13.9-13.85,18.75-24.9,22.9,2.17,3.9,5.89,1.87,8.69,3.83-7.18,7.47-16.29,9-25.82,9.34-6.24.21-12.55-.11-18.08,3.61-12.11,8.16-27.65,8.24-39.61,16.88-2.92,2.1-6.67,1.81-11.21,1.17,7.17-4.44,14-8.21,18.12-16.75-7.44,1-13.62,1.6-17.62,7.65l-.14.05c-3.86.33-5.16,3.25-6,6.31-.79,2.8-1.33,5.46-5.22,4.3-4.6-13.34-1.68-18.57,12.07-23.83,4.9-1.87,9-5.93,14.85-3.21,3.72,3.19,7.62,5.07,12.23,1.64l5.67-.07c.54.63,1.12.78,1.75.13,8.9-.57,10.85-9.37,16.37-13.94,1.19-1,3.14-2.65,1.47-4.35-1.91-1.93-3.1.56-4.07,1.67-5.77,6.56-13.31,10.4-21,14-4.26,1.83-8.19-.15-12.21-1-.23-.83-.45-1.65-.67-2.48.7-2.2,1.39-4.41,2.31-7.31-4.1,1.26-4.6,4.16-5.36,6.86-2.66.85-5.39,1.45-4.19-2.88.72-2.57,2.18-4.94,3.3-7.39a46.07,46.07,0,0,1,20.56-11.47C426.34,231.43,429.67,229.86,431.38,226.1Zm-18.45,17.63c-3-.11-4.32,1-5.8,4.48C410.27,247.13,412.19,246.93,412.93,243.73Z"/><path class="cls-9" d="M493.14,231.93a4,4,0,0,1-2.94,3c-3,1.12-6.87,3.28-9,.72-2-2.37,2.35-4.22,3.56-6.49a25.49,25.49,0,0,1,3.25-3.93C489.37,227.76,486.22,233.74,493.14,231.93Z"/><path class="cls-3" d="M448.88,192.39c-.51,3.08-1,6.16-1.57,9.52-3.72-1.48-4.22-4.56-6.05-6.48,2.17,0,4.38,0,4.87-2.87Z"/><path class="cls-14" d="M435.78,42.1l.12-2c.42-4.7.66-9.43,1.32-14.1s1.11-9.46,4.3-16.12c1.68,8.91,5.78,15,5.92,22.52.14,8,.44,16,.68,23.94l0,8.91A63.76,63.76,0,0,0,447.61,85c0,1.51-.06,3-.08,4.54,1.92,10.07-7.54,6.42-12.8,9,4.49,2.35,7.94,1.15,11.21,1.58,1.56,13-.19,25.91.12,38.87.09,3.78-2.74,3.32-5.33,3.25-3-.08-5.32-.3-5.21-4.41.33-12.74-3.68-25.58,1-38.24.35-1-.73-1.73-1.79-2a1.69,1.69,0,0,1,0-2.48l1.26-1.89C436.78,76.14,437.27,59.12,435.78,42.1Zm5.65,59.47c-1.41.28-2.93.66-2.52,2.66a9.48,9.48,0,0,0,1.42,2.49c1.05-1.15,2.42-2.15,3.05-3.5C443.86,102.2,442.51,101.76,441.43,101.57Z"/><path class="cls-5" d="M451.57,39.12h28L462.61,59.23c-2.79-2.79-.28-7.28-2.76-8.95-3.72-2.51-5.25,2.4-8,3.59Z"/><path class="cls-9" d="M435.78,42.1c1.49,17,1,34,.16,51.07C433.86,89,437,84,433.68,80.06c0-.7.07-1.4.11-2.1,2.86-6.62.82-13.58,1.35-20.37C435.55,52.44,435.58,47.27,435.78,42.1Z"/><path class="cls-9" d="M445.94,100.08c-3.27-.43-6.72.77-11.21-1.58,5.26-2.56,14.72,1.09,12.8-9-.39,5.77,8.16,3,8.18,8.47C452.64,99.89,448.69,97.14,445.94,100.08Z"/><path class="cls-9" d="M447.61,85a63.76,63.76,0,0,1,.54-19.69A42.82,42.82,0,0,1,447.61,85Z"/><path class="cls-9" d="M434.68,95.06a1.69,1.69,0,0,0,0,2.48c-1.7.7-4.18,2.14-4.38-.85C430.15,94.31,432.52,93.84,434.68,95.06Z"/><path class="cls-8" d="M415.14,101.48a4.87,4.87,0,0,1,3.11-3.33C418.76,100.7,417.4,101.51,415.14,101.48Z"/><path class="cls-8" d="M407.54,110.17a3.15,3.15,0,0,1,2-2.59C409.51,108.93,409.41,110.25,407.54,110.17Z"/><path class="cls-5" d="M596.73,346.43c-2.31.33-4.57.68-3.54-3,.5-1.79,1.56-3.85,3.25-3.32,4.09,1.3-.43,4,.56,6Z"/><path class="cls-9" d="M418.76,260.65c-4.61,3.43-8.51,1.55-12.23-1.64.05-.66.11-1.32.17-2,4,.87,7.95,2.85,12.2,1C418.85,258.91,418.8,259.78,418.76,260.65Z"/><path class="cls-9" d="M403,254.1c.76-2.7,1.26-5.6,5.36-6.86-.92,2.9-1.61,5.11-2.31,7.31Z"/><path class="cls-11" d="M235.7,129.16c26.42,7,54.07,2,80.49,8.54,10.83,2.69,11,3,8.19,13.49-2.5,9.52,1.33,17.72,5.54,25.79,1.2,2.29,2.74,4.41,5.07,8.1-10.39-5.6-16.36-20.49-14.09-31.49,1.73-8.35.31-10.06-7.86-13-11.39-4.14-23.12-4.48-35-4.32-11.57.16-23-.43-34.4-2.83A13.51,13.51,0,0,1,235.7,129.16Z"/><path class="cls-11" d="M341.42,192.48c-1.19-.11-2.34-.29-2.54-1.78,0-.17.25-.55.39-.55,1.37,0,1.94,1,2.42,2.1Z"/><path class="cls-11" d="M341.69,192.25c.38.54.77,1.08,1.12,1.64a4.61,4.61,0,0,1-.52.41l-.87-1.82Z"/><polygon class="cls-11" points="336.55 187.13 336.14 187.26 336.2 186.88 336.55 187.13"/><path class="cls-4" d="M306.59,685.25c-7.53-20.08-10.88-41.26-16.31-61.89-1.07-4.09-2.09-8.2-3.13-12.3,1.69-6.62,7-8.76,12.8-10,3.66-.76,7.55-.53,11.17-1.41,12.1-3,24.6-3.8,36.12-9.87,7.57-4,16.55-5.57,24.36-9.53,15-7.61,27-19.72,41.47-28.22,12.56-5,22.27-15.08,35.11-19.57,2.9-1.47,5.7-.79,8.55.25,7.59,2.79,15.52,4.67,22.63,8.72l-.06-.09c.22,1.19,0,3,.72,3.49,4.82,3.57,8,8.79,13.43,11.91,4.65,2.68,10.57,5,12,10.82,1.35,5.41,4.8,9.12,8.63,11.91a12.76,12.76,0,0,1,5.48,10.88c.29,22.92,1,45.88,0,68.76-1.11,24.4-.83,48.77-.67,73.15q0,12.6,0,25.2-.07,32-.14,64a12.57,12.57,0,0,1-.49,1.2,4.66,4.66,0,0,0-2.62,4.76c-.2.42-.41.83-.64,1.24s-.7,1.07-1.06,1.6c-19.9,36.48-43,70.86-68.23,103.82-3.42,4.46-5.78,4.24-9.15-.12a812.94,812.94,0,0,1-75.4-116.3c-13.67-25.78-26.38-52.05-36.2-79.56-2-5.49-5.08-10.54-6.18-16.34a18.8,18.8,0,0,1,3.16-12.42c1.4-1.34,2.38-2.72,0-4.9v4.91c-3.73.35-5.85-.39-6.35-5-.4-3.75-1.53-8.18-6-10.06a1.37,1.37,0,0,1-.41-1.25C310.63,689.65,311.24,686.56,306.59,685.25ZM489.73,667h0c4.73.05,9-.62,10.19-6.31l.12-.11c7.92.48,7.38-5.8,8.56-10.71,6.22-14,8.68-28.25,3.5-43.19-4.87-14-17.94-23.62-31.3-22.74-11,.73-18.18,10.87-14,19.88,1.6,3.46,3.19,5.44,5.82.61,3-5.45,8-6.46,13.63-5.54,9.35,1.51,17.89,10.57,18.9,20,1.76,16.64-10.76,32.18-27.93,34.47a57.3,57.3,0,0,1-23.94-1.61c-1.33-.39-2.93-1.86-3.93,0-.45.85.18,2.39.55,3.54.47,1.43,1.22,2.77,1.79,4.16,3.44,8.48,3.33,8.65-5.64,8.81-18.89.34-31.28,9.72-36.66,27.66-.36,1.18-.21,3.06-2.35,3-3.92-21-20.6-34.18-43.9-34.74-3.71.69-8.47-2.7-10.94,2.82a.59.59,0,0,1-.81.28c-2.42-.22-5-.77-5.13,3l.08-.06c-2.47-.17-5-.69-6.62,2.09-4.08,7.2-9.57,13.71-8.85,22.94.29,3.73,1.65,8-1.69,11.4L327.5,708c-4,4.64-4.67,9.16.54,13.43l0,0c.49,8.6,7.3,19.59,12.37,21.24,11.87,3.85,24.05,2.88,36.18,3.05,4.58.07,7.62-1.65,8.8-6.21,11-8.08,19.14-18.14,21.63-32.16,2.63,1.83,2.44,4.3,3.09,6.41,6.09,20,25,30.91,44.77,26,13-3.24,20.47-15.94,16.22-28.61-2.23-6.64-6.55-12.06-14-13.52-7-1.36-11.93,2.21-16.4,7.18-5.57,6.19-3.92,12.7-.65,19.66-5.55-.62-7.06-4.33-8.58-7.63-3.18-6.93-2.79-13.88,1.87-20,5.12-6.72,12.32-9.5,20.67-8.52,14.75,1.73,28.82,14.28,33,28.61,2.78,9.47-.06,18-4.24,26.83,9.92-2.43,15-8.67,15.83-19.2,1.33-16.86-4.6-31-16.49-42.83-6.77-6.71-6.72-7.74,1.33-12C486.2,670.37,488.37,669.67,489.73,667Z"/><path class="cls-2" d="M544.15,405.4c-5.89.52-9.94,2.92-13.89,5.47-11.14,7.2-22.12,6.91-33.25-.15-6.59-4.17-13.41-8-20.18-11.84-1.52-.87-3.43-2.92-4.47.77-2.44,8.65-10,11.85-17.23,14.32C442.69,418.2,431,424.1,419,429.25c-3.89,1.66-11,7.37-9.3-4.34a2.43,2.43,0,0,0-.77-2c-11.68-7.24-7.41-19.76-9.72-30-1-4.65,1.9-7.08,7.2-7.07q94,.18,188.06,0c4.57,0,6.38,1.6,6.8,5.82,1.65,16.53,3.89,33,4.32,49.63.12,4.45-2,7.81-4.38,11a184.66,184.66,0,0,1-43.54,41.42c-4.13,2.82-6.76,2.08-9.53-1.35-3.15-3.91-6.64-7.59-9.44-11.73-3.75-5.54-2.08-11.16,1.11-16.32,4.91-8,11.94-13.49,20.53-17.14,1.27-.54,3.38-.39,3.52-2.27.16-2.2-2-2.7-3.51-3.32A34.41,34.41,0,0,1,547,432.38C537.62,421.77,536.93,418.94,544.15,405.4Z"/><path class="cls-1" d="M519.58,570.49c0,1.36-.08,2.72-.13,4.07-1,1.27-1.07,4.71-3.78,1.79-2.18-2.35-4.8-4.77-5.79-7.65-2.3-6.7-7.32-10.24-12.84-13.86-4.53-3-8.34-7-12.62-10.41-1.53-1.22-2.21-4.09-5.12-3.06l.06.09c1.19-2.25-.71-3.2-2-4-8.1-5.13-17.16-7.31-26.56-8.33-.94-9.1-.7-18.51-3.05-27.23-5.94-22-19.79-38-40.2-48.4-2.47-1.25-6-1.5-6.75-5.16l.36-.23,1.14-.59A346.72,346.72,0,0,1,455.62,425c17-5.51,32.86-2,47.86,6.23,13.3,7.27,13.12,16.56-.1,23.81-7.6,4.17-15.49,7.8-24.08,12.09,20.61,15.37,30.43,36.48,37.39,59.35a30.52,30.52,0,0,0,1.58,13.73q.62,14.31,1.22,28.63c-.16.17-.47.38-.44.49A6.61,6.61,0,0,0,519.58,570.49Z"/><path class="cls-2" d="M287.07,600.86c-4.29-14.29-5.32-29.1-6.93-43.8A702.19,702.19,0,0,1,279,418.32c.53-6,2.07-7.75,8.16-6.75a99.64,99.64,0,0,0,21.05,1.29,98.36,98.36,0,0,1,61.95,17.26,21.84,21.84,0,0,1,3.05,2.22c5.07,4.91,8.44,12.3,17.36,11.49.84-.07,1.61,1.09,1.32,2.29-7.95-.38-15.9-1.1-23.85-1.08-34.58.07-68.92,29.64-73.54,63.09-2.57,9-1.85,18.09-.64,27.19.93,9.86,4.63,18.65,9.62,27.16,7.15,12.18,18,20.42,28.81,28.86-4.1,1.06-8.17,2.18-12.28,3.16C309.09,597.1,297.65,596.75,287.07,600.86Z"/><path class="cls-6" d="M558.37,610.58c-4.56-17.32-3.34-35-3.41-52.62,0-7-.32-14.1.27-21.09.7-8.34,5.3-12.12,13.36-12.23,2.53,0,5.06.63,5.18,3.25.9,19.42,13.18,36.43,11.48,56.53-.81,9.59-3.12,19.23-.83,29.08,5.94-11.17,6.21-23.53,7-37,5.56,5.46,8,10.28,6.37,17.35-2.8,12-4.78,24.2-7.1,36.31C577.22,628.06,566.56,621.34,558.37,610.58Z"/><path class="cls-4" d="M585.21,653.58c-6.73,28.06-15.35,55.5-27.22,82-3.43-32.92-3.34-65.85-3-98.78,2.45-4.38,1-9.31,1.95-13.91s3-5.84,6.43-2.3c4.14,4.27,9.38,7,14.58,9.09a18,18,0,0,1,10.64,10.5c-.32,1.35-.63,2.69-.94,4C584.37,646.73,585,650.21,585.21,653.58Z"/><path class="cls-10" d="M332.24,591.34c-10.78-8.44-21.66-16.68-28.81-28.86-5-8.51-8.69-17.3-9.63-27.16,1.34-9,.31-18.13.65-27.19,4.62-33.45,39-63,73.54-63.09,7.95,0,15.9.7,23.85,1.08l-.25,0c-.45,1.13.54,1.29,1.15,1.69,2.39,5.09,5.32,1.09,8.05.49.75,3.66,4.28,3.91,6.75,5.16,20.41,10.36,34.26,26.38,40.2,48.4,2.35,8.72,2.11,18.13,3.05,27.23-3.89,1.12-4.33,1.68-2.61,3.38-12.84,4.49-22.55,14.59-35.11,19.57l-4.78.2c.89-2.34,3.09-3.21,5-4.35,9.65-5.83,19.36-11.56,29-17.42,2.36-1.44,4.13-3.21,4.29-6.53.56-11.49-1.13-22.52-6.43-32.76-5.51-10.64-12.45-19.6-22.79-26.8-9.79-6.81-19.87-12.91-31.11-14.55-26.4-3.85-50.15,2.14-69.34,22.61-13.71,14.64-20.65,31.59-20.88,51.26-.25,20.51,8,38.07,22.21,52.28,6.22,6.21,13,13.47,23.53,12.71C339.24,592,334.89,588.6,332.24,591.34Z"/><path class="cls-6" d="M606,504.4c0,5.76,2.32,14-.55,16.71-4.23,4-8.92-4.43-14.37-5.12-1.48-.19-3-1.08-4.39-1-6.3.52-11.7-.37-15.38-6.48-1.18-2-3.91-3-6.47-3.53-6.2-1.33-4.35-4.52-1.17-7.09,7.84-6.34,15.28-13.14,25.6-15.84,10-2.62,17.69,2.29,17.63,12.54,0,3.25-.31,6.51-.48,9.77Z"/><path class="cls-6" d="M343.24,403.27c-22.55,4.91-41.59,1.42-58.22-12.72-1.23-1-2.34-2.35-1.6-3.8.41-.81,2.09-1.38,3.19-1.38,10.8,0,21.95-1.47,32.27.8C328.14,388.21,334.73,396.66,343.24,403.27Z"/><path class="cls-3" d="M599.59,577.69c-4.33-3.83-5.28-8.22-6.25-12.45-3-13.12-3.94-26.85-12.42-38.25-2.65-3.56,0-5,3.32-5a34.48,34.48,0,0,1,18.34,5.94,4.56,4.56,0,0,1,2.48,4.33C603.78,547.14,603,562.08,599.59,577.69Z"/><path class="cls-7" d="M479.3,541.37c2.91-1,3.59,1.84,5.12,3.06,4.28,3.39,8.09,7.44,12.62,10.41,5.52,3.62,10.54,7.16,12.84,13.86,1,2.88,3.61,5.3,5.79,7.65,2.71,2.92,2.83-.52,3.78-1.79,3.88,27.73,1.78,55.6,1.82,83.4,0,23.34,1.25,46.74-1.32,70a31.14,31.14,0,0,1-1.07,4.28c-.16-24.38-.44-48.75.67-73.15,1-22.88.31-45.84,0-68.76a12.76,12.76,0,0,0-5.48-10.88c-3.83-2.79-7.28-6.5-8.63-11.91-1.44-5.79-7.36-8.14-12-10.82-5.39-3.12-8.61-8.34-13.43-11.91C479.31,544.33,479.52,542.56,479.3,541.37Z"/><path class="cls-7" d="M332.24,591.34c2.65-2.74,7,.62,9.51-2.63,13.46-6.78,29.1-8.62,41.24-18.47,8-6.51,15.93-13.3,25.3-18l4.78-.2c-14.45,8.5-26.46,20.61-41.47,28.22-7.81,4-16.79,5.55-24.36,9.53-11.52,6.07-24,6.91-36.12,9.87-3.62.88-7.51.65-11.17,1.41-5.81,1.21-11.11,3.35-12.8,10-3.67-3.37,1.39-6.81-.08-10.2,10.58-4.11,22-3.76,32.89-6.36C324.07,593.52,328.14,592.4,332.24,591.34Z"/><path class="cls-3" d="M395.43,416.59c-5.48-.92-9.62-1.57-13.73-2.35-.86-.17-2.31-.81-2.35-1.32-.56-7.65-5.38-14.12-6-21.7-.17-2,0-4.3,2.31-5.1s4.62-.36,5.83,2.07C386,397.32,390.48,406.5,395.43,416.59Z"/><path class="cls-3" d="M589,476.53l16.57-19.93c2.3,6.94,1.11,13.1,1.39,19.13.14,2.93-1.33,3.82-4.32,3.11C598.51,477.88,594.32,477.41,589,476.53Z"/><path class="cls-7" d="M588.57,640.23a18,18,0,0,0-10.64-10.5c-5.2-2.1-10.44-4.82-14.58-9.09-3.42-3.54-5.47-2.31-6.43,2.3s.5,9.53-1.95,13.91c-1.39-9.09.9-17.69,3.4-26.27,8.19,10.76,18.85,17.48,32.28,19.63C590.21,633.6,592.26,637.52,588.57,640.23Z"/><path class="cls-7" d="M518.74,821.49q.06-32,.14-64c3.44,12,1,24.3,2.2,36.43.67,7,.23,14.1.19,21.16C521.26,817.49,522,820.3,518.74,821.49Z"/><path class="cls-3" d="M353.36,400.28c-3.66-2.47-7.48-4.73-10.93-7.46-1.89-1.5-3.92-4.44-1.86-6.32s5.74-1.8,7.76,1.29c2.37,3.64,4.45,7.48,6.66,11.23Z"/><path class="cls-11" d="M321.93,709.37a18.8,18.8,0,0,0-3.16,12.42c-3.94-8.88-7.75-17.8-9.14-27.52,4.43,1.88,5.56,6.31,6,10.06.5,4.66,2.62,5.4,6.35,5Z"/><path class="cls-3" d="M303.46,407c-8,0-13.94,0-19.86,0a2.49,2.49,0,0,1-2.77-2.8c.07-2.19,1.73-2.08,3.25-1.95C290,402.74,296,403,303.46,407Z"/><path class="cls-3" d="M370.83,410.61c-7-1.06-9.94-4.2-9.74-10.21,0-1.31.05-2.53,1.57-2.91a2.62,2.62,0,0,1,3,1.57C367.59,402.44,370,405.64,370.83,410.61Z"/><path class="cls-7" d="M518.27,540.22a30.52,30.52,0,0,1-1.58-13.73C519.07,530.85,518.84,535.52,518.27,540.22Z"/><path class="cls-11" d="M306.59,685.25c4.65,1.31,4,4.4,2.63,7.77A12,12,0,0,1,306.59,685.25Z"/><path class="cls-7" d="M585.21,653.58c-.23-3.37-.84-6.85,2.42-9.32C588.16,647.72,587,650.72,585.21,653.58Z"/><path class="cls-7" d="M515.63,827.45a4.66,4.66,0,0,1,2.62-4.76C518.44,824.86,518.19,826.79,515.63,827.45Z"/><path class="cls-7" d="M519.58,570.49a6.61,6.61,0,0,1-.53-1.15c0-.11.28-.32.44-.49A6.49,6.49,0,0,1,520,570C520,570.11,519.72,570.32,519.58,570.49Z"/><path class="cls-2" d="M392.74,447.83c-.61-.4-1.6-.56-1.15-1.69C393.36,445.77,393,446.85,392.74,447.83Z"/><path class="cls-10" d="M402.29,447.5l-1.14.59C401.21,447.27,401.56,447,402.29,447.5Z"/><path class="cls-7" d="M513.93,830.29c.36-.53.71-1.07,1.06-1.6Z"/><path class="cls-2" d="M414.26,336.06c-3.77-2.58-3.23-6.89-4.23-11.26-5,2.65-9.31,8.29-15.32,4.2-3.51-2.39-1.06-6.33-.18-10.2-6.16,1.42-12.32,6-15.91-2.4,4.89-8.16,13.27-11.12,21.43-14.41.68-.27,1.84-.71,2.14-.42,6,5.95,14.43,2.58,21.19,5.51.46.2,1,.79,1.31.67,8.3-3.31,15.92,4.29,24.16,1.51a8.06,8.06,0,0,1,6.51.4c3.87,1.89,7.57,2.18,10.76-1.68,1.79-2.15,4.56-2.17,7-1.45,3.26,1,6.21,2.16,8-2.24.56-1.37,2.44-1.8,4-1.34,7.4,2.18,13.8,5.86,18.55,12.17,2,2.68-.24,4.73-.45,7.07l-1.58,1.06a.7.7,0,0,0-1.13.22,20.57,20.57,0,0,1-10-6.35c-.43,5,2.71,10.67-3.66,12.63-5.34,1.65-9-1.15-11.86-6.26-2.22,4.26-1.8,9.31-6.79,10.65-4.42,1.19-8.4.66-11.61-2.93-1.41-1.57-2.57-1.24-3.33.56a15.52,15.52,0,0,1-4.49,5.84l.07-.18c-4,1.74-8.16,1.57-12.31.46-3-1.67-4-4.86-5.71-8l-7.45,6.58A21,21,0,0,1,414.26,336.06Z"/><path class="cls-7" d="M500.58,323.47a.7.7,0,0,1,1.13-.22C501.48,324.07,501.09,324.11,500.58,323.47Z"/><path class="cls-11" d="M391,275.39l7.21-1c-2.36,1.3-4,10.31-7.33,1Z"/><path class="cls-11" d="M414.26,336.06a21,21,0,0,0,9.15.39l-.24,1.86c-3,2.72-6,2.6-8.86-.23C414.3,337.41,414.28,336.74,414.26,336.06Z"/><path class="cls-14" d="M423.17,338.31l.24-1.86,7.45-6.58c1.7,3.16,2.74,6.35,5.71,8a.87.87,0,0,0-.94.9A22,22,0,0,0,423.17,338.31Z"/><path class="cls-11" d="M435.63,338.79a.87.87,0,0,1,.94-.9c4.15,1.11,8.27,1.28,12.31-.46C445,343,440.38,341.63,435.63,338.79Z"/><path class="cls-6" d="M429.25,198.34l.58-1.9c1.35,1.06,0,1.39-.53,1.94Z"/><path class="cls-8" d="M418.76,260.65c0-.87.09-1.74.14-2.6,7.74-3.56,15.28-7.4,21.05-14,1-1.11,2.16-3.6,4.07-1.67,1.67,1.7-.28,3.37-1.47,4.35-5.52,4.57-7.47,13.37-16.37,13.94l-1.75-.13Z"/><path class="cls-9" d="M412.93,243.73c-.74,3.2-2.66,3.4-5.8,4.48C408.61,244.75,409.89,243.62,412.93,243.73Z"/><path class="cls-9" d="M424.43,260.58l1.75.13C425.55,261.36,425,261.21,424.43,260.58Z"/><path class="cls-10" d="M441.43,101.57c1.08.19,2.43.63,1.95,1.65-.63,1.35-2,2.35-3.05,3.5a9.48,9.48,0,0,1-1.42-2.49C438.5,102.23,440,101.85,441.43,101.57Z"/><path class="cls-15" d="M483.44,669.67c-8.05,4.3-8.1,5.33-1.33,12,11.89,11.79,17.82,26,16.49,42.83-.84,10.53-5.91,16.77-15.83,19.2,4.18-8.81,7-17.36,4.24-26.83-4.2-14.33-18.27-26.88-33-28.61-8.35-1-15.55,1.8-20.67,8.52-4.66,6.11-5.05,13.06-1.87,20,1.52,3.3,3,7,8.58,7.63-3.27-7-4.92-13.47.65-19.66,4.47-5,9.42-8.54,16.4-7.18,7.44,1.46,11.76,6.88,14,13.52,4.25,12.67-3.2,25.37-16.22,28.61-19.78,4.92-38.68-6-44.77-26-.65-2.11-.46-4.58-3.09-6.41-2.49,14-10.63,24.08-21.63,32.16-5.64,2-11.07,4.65-17.26,4.73-17.84.22-32-5.89-40.09-22.81l0,0L327.5,708l1.68-1.36c4.5,10,9.91,19,21.07,23.14,10.46,3.91,20.05,2.59,28.31-4.35,7.7-6.45,8.61-15.51,6.62-24.9-1.55-7.32-10-14.41-17.28-14.65-8.08-.27-16.68,6-18.94,13.59-.84,2.8-1,5.19,2.08,7.81.63-6.73,2.65-11.78,9.06-13.79,7.37-2.32,15.07.23,18.43,6.28,3.76,6.78,1.83,16.41-4.42,22-7.25,6.41-15.62,6.84-24,3.4-9.87-4-15-12.07-16.41-22.58-1.7-13.09,3.86-23.35,12.65-32.33l-.08.06a8,8,0,0,0,5.13-3,.59.59,0,0,0,.81-.28l10.94-2.82c23.3.56,40,13.74,43.9,34.74,2.14.1,2-1.78,2.35-3,5.38-17.94,17.77-27.32,36.66-27.66,9-.16,9.08-.33,5.64-8.81-.57-1.39-1.32-2.73-1.79-4.16-.37-1.15-1-2.69-.55-3.54,1-1.88,2.6-.41,3.93,0a57.3,57.3,0,0,0,23.94,1.61c17.17-2.29,29.69-17.83,27.93-34.47-1-9.45-9.55-18.51-18.9-20-5.66-.92-10.66.09-13.63,5.54-2.63,4.83-4.22,2.85-5.82-.61-4.16-9,3-19.15,14-19.88,13.36-.88,26.43,8.71,31.3,22.74,5.18,14.94,2.72,29.2-3.5,43.19l-8.56,10.71-.12.11L489.75,667h0C487.25,667,485,667.54,483.44,669.67Z"/><path class="cls-11" d="M346.34,670.23c-8.79,9-14.35,19.24-12.65,32.33,1.37,10.51,6.54,18.54,16.41,22.58,8.39,3.44,16.76,3,24-3.4,6.25-5.54,8.18-15.17,4.42-22-3.36-6-11.06-8.6-18.43-6.28-6.41,2-8.43,7.06-9.06,13.79-3-2.62-2.92-5-2.08-7.81,2.26-7.6,10.86-13.86,18.94-13.59,7.26.24,15.73,7.33,17.28,14.65,2,9.39,1.08,18.45-6.62,24.9-8.26,6.94-17.85,8.26-28.31,4.35-11.16-4.18-16.57-13.14-21.07-23.14,3.34-3.36,2-7.67,1.69-11.4-.72-9.23,4.77-15.74,8.85-22.94C341.31,669.54,343.87,670.06,346.34,670.23Z"/><path class="cls-11" d="M328,721.41c8.06,16.92,22.25,23,40.09,22.81,6.19-.08,11.62-2.74,17.26-4.73-1.18,4.56-4.22,6.28-8.8,6.21-12.13-.17-24.31.8-36.18-3.05C335.31,741,328.5,730,328,721.41Z"/><path class="cls-7" d="M448.18,532.49c-1.72-1.7-1.28-2.26,2.61-3.38,9.4,1,18.46,3.2,26.56,8.33,1.3.82,3.2,1.77,2,4-7.11-4.05-15-5.93-22.63-8.72C453.88,531.7,451.08,531,448.18,532.49Z"/><path class="cls-7" d="M500.06,660.6l8.56-10.71C507.44,654.8,508,661.08,500.06,660.6Z"/><path class="cls-11" d="M327.5,708l.54,13.43C322.83,717.18,323.54,712.66,327.5,708Z"/><path class="cls-7" d="M489.75,667l10.19-6.31C498.77,666.4,494.48,667.07,489.75,667Z"/><path class="cls-11" d="M363.14,664.2,352.2,667C354.67,661.5,359.43,664.89,363.14,664.2Z"/><path class="cls-7" d="M483.44,669.67c1.57-2.13,3.81-2.69,6.29-2.64C488.37,669.67,486.2,670.37,483.44,669.67Z"/><path class="cls-11" d="M351.39,667.3a8,8,0,0,1-5.13,3C346.35,666.53,349,667.08,351.39,667.3Z"/><path class="cls-11" d="M321.94,709.38v-4.91c2.37,2.18,1.39,3.56,0,4.9Z"/><path class="cls-7" d="M294.45,508.13c-.34,9.06.69,18.15-.65,27.19C292.6,526.22,291.88,517.14,294.45,508.13Z"/><path class="cls-5" d="M408.29,552.26c-9.37,4.68-17.26,11.47-25.3,18-12.14,9.85-27.78,11.69-41.24,18.47-10.5.76-17.31-6.5-23.53-12.71C304,561.79,295.76,544.23,296,523.72c.23-19.67,7.17-36.62,20.88-51.26C336.08,452,359.83,446,386.23,449.85c11.24,1.64,21.32,7.74,31.11,14.55,10.34,7.2,17.28,16.16,22.79,26.8,5.3,10.24,7,21.27,6.43,32.76-.16,3.32-1.93,5.09-4.29,6.53-9.63,5.86-19.34,11.59-29,17.42C411.38,549.05,409.18,549.92,408.29,552.26Z"/></g></g></svg>