<svg id="Filled" height="512" viewBox="0 0 512 512" width="512" xmlns="http://www.w3.org/2000/svg"><path d="m104 360h304v64h-304z" fill="#4d5230"/><path d="m424 264h-336l-16 48 48 64h272l48-64z" fill="#60663c"/><path d="m24 360h96a0 0 0 0 1 0 0v109.525a18.475 18.475 0 0 1 -18.475 18.475h-59.05a18.475 18.475 0 0 1 -18.475-18.475v-109.525a0 0 0 0 1 0 0z" fill="#4f5659"/><g fill="#414649"><path d="m64 392h16v96h-16z"/><path d="m24 416h96v16h-96z"/><path d="m24 384h96v16h-96z"/><path d="m24 448h96v16h-96z"/></g><path d="m120 360h-96l24-48h72z" fill="#596063"/><path d="m120 312h-48l16-48h48z" fill="#4d5230"/><circle cx="168" cy="328" fill="#967c3f" r="16"/><circle cx="200" cy="328" fill="#967c3f" r="16"/><path d="m400 264h-288l33.49-120.565a32 32 0 0 1 30.833-23.435h159.354a32 32 0 0 1 30.833 23.435z" fill="#737d49"/><path d="m408 360h64a16 16 0 0 1 16 16v112a0 0 0 0 1 0 0h-96a0 0 0 0 1 0 0v-112a16 16 0 0 1 16-16z" fill="#4f5659" transform="matrix(-1 0 0 -1 880 848)"/><path d="m432 392h16v96h-16z" fill="#414649"/><path d="m392 416h96v16h-96z" fill="#414649"/><path d="m392 384h96v16h-96z" fill="#414649"/><path d="m392 448h96v16h-96z" fill="#414649"/><path d="m392 360h96l-24-48h-72z" fill="#596063"/><path d="m392 312h48l-16-48h-48z" fill="#4d5230"/><circle cx="344" cy="328" fill="#967c3f" r="16"/><circle cx="312" cy="328" fill="#967c3f" r="16"/><path d="m328 120v80a32 32 0 0 1 -32 32h-80a32 32 0 0 1 -32-32v-80z" fill="#60663c"/><path d="m280 48v128a24 24 0 0 1 -48 0v-128a24 24 0 0 1 48 0z" fill="#737d49"/><circle cx="256" cy="48" fill="#4d5230" r="24"/><path d="m200 304a23.9 23.9 0 0 0 -16 6.131 24 24 0 1 0 0 35.738 23.994 23.994 0 1 0 16-41.869zm-32 32a8 8 0 1 1 8-8 8.009 8.009 0 0 1 -8 8zm32 0a8 8 0 1 1 8-8 8.009 8.009 0 0 1 -8 8z"/><path d="m495.155 356.422-24-48a8 8 0 0 0 -7.155-4.422h-18.234l-14.177-42.53a8 8 0 0 0 -7.589-5.47h-17.919l-31.863-114.706a40.119 40.119 0 0 0 -38.541-29.294h-47.677v-64a32 32 0 0 0 -64 0v64h-47.677a40.119 40.119 0 0 0 -38.541 29.294l-31.863 114.706h-17.919a8 8 0 0 0 -7.589 5.47l-14.177 42.53h-18.234a8 8 0 0 0 -7.155 4.422l-24 48h.006a7.949 7.949 0 0 0 -.851 3.578v112a24.027 24.027 0 0 0 24 24h64a24.027 24.027 0 0 0 24-24v-40h256v40a24.027 24.027 0 0 0 24 24h64a24.027 24.027 0 0 0 24-24v-112a7.949 7.949 0 0 0 -.851-3.575zm-20.099-4.422h-75.056v-32h59.056zm4.944 32h-80v-16h80zm0 32h-32v-16h32zm-448-48h80v16h-80zm32 32v16h-32v-16zm-32 32h32v16h-32zm48 0h32v16h-32zm0-16v-16h32v16zm48-102.7 13.766-41.3h228.468l13.766 41.3v54.7h-256zm272 86.7h32v16h-32zm32 32v16h-32v-16zm16 0h32v16h-32zm-19.1-128h-31.134l-10.666-32h31.135zm-188.9-228.305a31.885 31.885 0 0 0 32 0v100.305a16 16 0 0 1 -32 0zm16-43.695a16 16 0 1 1 -16 16 16.019 16.019 0 0 1 16-16zm0 176a32.036 32.036 0 0 0 32-32v-48h32v72a24.027 24.027 0 0 1 -24 24h-80a24.027 24.027 0 0 1 -24-24v-72h32v48a32.036 32.036 0 0 0 32 32zm-102.8-62.423a24.067 24.067 0 0 1 22.8-17.564v71.987a40.045 40.045 0 0 0 40 40h80a40.045 40.045 0 0 0 40-40v-71.987a24.067 24.067 0 0 1 22.8 17.564l30.675 110.423h-266.95zm-59.434 126.423h31.134l-10.667 32h-31.133zm-40.822 48h59.056v32h-75.056zm-20.944 152v-8h32v16h-24a8.009 8.009 0 0 1 -8-8zm72 8h-24v-16h32v8a8.009 8.009 0 0 1 -8 8zm24-64v-32h256v32zm272 56v-8h32v16h-24a8.009 8.009 0 0 1 -8-8zm72 8h-24v-16h32v8a8.009 8.009 0 0 1 -8 8z"/><path d="m344 304a23.9 23.9 0 0 0 -16 6.131 24 24 0 1 0 0 35.738 23.994 23.994 0 1 0 16-41.869zm-32 32a8 8 0 1 1 8-8 8.009 8.009 0 0 1 -8 8zm32 0a8 8 0 1 1 8-8 8.009 8.009 0 0 1 -8 8z"/></svg>