<?xml version="1.0" encoding="utf-8"?>
<!-- Generator: Adobe Illustrator 24.3.0, SVG Export Plug-In . SVG Version: 6.00 Build 0)  -->
<svg version="1.1" id="Filled" xmlns="http://www.w3.org/2000/svg" xmlns:xlink="http://www.w3.org/1999/xlink" x="0px" y="0px"
	 viewBox="0 0 512 512" style="enable-background:new 0 0 512 512;" xml:space="preserve">
<style type="text/css">
	.st0{fill:#4D5230;}
	.st1{fill:#60663C;}
	.st2{fill:#4F5659;}
	.st3{fill:#414649;}
	.st4{fill:#596063;}
	.st5{fill:#967C3F;}
	.st6{fill:#737D49;}
</style>
<path class="st0" d="M104,360h304v64H104V360z"/>
<path class="st1" d="M424,264H88l-16,48l48,64h272l48-64L424,264z"/>
<path class="st2" d="M24,360h96l0,0v109.5c0,10.2-8.3,18.5-18.5,18.5l0,0h-59c-10.2,0-18.5-8.3-18.5-18.5l0,0L24,360
	C24,360,24,360,24,360z"/>
<g>
	<path class="st3" d="M64,392h16v96H64V392z"/>
	<path class="st3" d="M24,416h96v16H24V416z"/>
	<path class="st3" d="M24,384h96v16H24V384z"/>
	<path class="st3" d="M24,448h96v16H24V448z"/>
</g>
<path class="st4" d="M120,360H24l24-48h72V360z"/>
<path class="st0" d="M120,312H72l16-48h48L120,312z"/>
<circle class="st5" cx="168" cy="328" r="16"/>
<circle class="st5" cx="200" cy="328" r="16"/>
<path class="st6" d="M400,264H112l33.5-120.6c3.8-13.9,16.5-23.4,30.8-23.4h159.4c14.4,0,27,9.6,30.8,23.4L400,264z"/>
<path class="st2" d="M472,488h-64c-8.8,0-16-7.2-16-16V360l0,0h96l0,0v112C488,480.8,480.8,488,472,488z"/>
<path class="st3" d="M432,392h16v96h-16V392z"/>
<path class="st3" d="M392,416h96v16h-96V416z"/>
<path class="st3" d="M392,384h96v16h-96V384z"/>
<path class="st3" d="M392,448h96v16h-96V448z"/>
<path class="st4" d="M392,360h96l-24-48h-72V360z"/>
<path class="st0" d="M392,312h48l-16-48h-48L392,312z"/>
<circle class="st5" cx="344" cy="328" r="16"/>
<circle class="st5" cx="312" cy="328" r="16"/>
<path class="st1" d="M328,120v80c0,17.7-14.3,32-32,32h-80c-17.7,0-32-14.3-32-32v-80H328z"/>
<path class="st6" d="M280,48v128c0,13.3-10.7,24-24,24c-13.3,0-24-10.7-24-24V48c0-13.3,10.7-24,24-24C269.3,24,280,34.7,280,48z"/>
<circle class="st0" cx="256" cy="48" r="24"/>
<path d="M200,304c-5.9,0-11.6,2.2-16,6.1c-9.9-8.8-25-8-33.9,1.8c-8.8,9.9-8,25,1.8,33.9c9.1,8.2,22.9,8.2,32,0
	c9.9,8.8,25,8,33.9-1.9c8.8-9.9,8-25-1.9-33.9C211.6,306.2,205.9,304,200,304L200,304z M168,336c-4.4,0-8-3.6-8-8s3.6-8,8-8
	s8,3.6,8,8C176,332.4,172.4,336,168,336z M200,336c-4.4,0-8-3.6-8-8s3.6-8,8-8s8,3.6,8,8C208,332.4,204.4,336,200,336z"/>
<path d="M495.2,356.4l-24-48c-1.4-2.7-4.1-4.4-7.2-4.4h-18.2l-14.2-42.5c-1.1-3.3-4.1-5.5-7.6-5.5h-17.9l-31.9-114.7
	c-4.8-17.3-20.6-29.3-38.5-29.3H288V48c0-17.7-14.3-32-32-32s-32,14.3-32,32v64h-47.7c-18,0-33.7,12-38.5,29.3L105.9,256H88
	c-3.4,0-6.5,2.2-7.6,5.5L66.2,304H48c-3,0-5.8,1.7-7.2,4.4l-24,48h0c-0.6,1.1-0.9,2.3-0.9,3.6v112c0,13.2,10.8,24,24,24h64
	c13.2,0,24-10.8,24-24v-40h256v40c0,13.2,10.8,24,24,24h64c13.2,0,24-10.8,24-24V360C496,358.8,495.7,357.5,495.2,356.4L495.2,356.4
	z M475.1,352H400v-32h59.1L475.1,352z M480,384h-80v-16h80V384z M480,416h-32v-16h32V416z M32,368h80v16H32V368z M64,400v16H32v-16
	H64z M32,432h32v16H32V432z M80,432h32v16H80V432z M80,416v-16h32v16H80z M128,313.3l13.8-41.3h228.5l13.8,41.3V368H128V313.3z
	 M400,400h32v16h-32V400z M432,432v16h-32v-16H432z M448,432h32v16h-32V432z M428.9,304h-31.1l-10.7-32h31.1L428.9,304z M240,75.7
	c9.9,5.7,22.1,5.7,32,0V176c0,8.8-7.2,16-16,16c-8.8,0-16-7.2-16-16V75.7z M256,32c8.8,0,16,7.2,16,16s-7.2,16-16,16
	c-8.8,0-16-7.2-16-16C240,39.2,247.2,32,256,32z M256,208c17.7,0,32-14.3,32-32v-48h32v72c0,13.2-10.8,24-24,24h-80
	c-13.2,0-24-10.8-24-24v-72h32v48C224,193.7,238.3,208,256,208z M153.2,145.6c2.9-10.3,12.2-17.4,22.8-17.6v72c0,22.1,17.9,40,40,40
	h80c22.1,0,40-17.9,40-40v-72c10.6,0.2,19.9,7.3,22.8,17.6L389.5,256h-267L153.2,145.6z M93.8,272h31.1l-10.7,32H83.1L93.8,272z
	 M52.9,320H112v32H36.9L52.9,320z M32,472v-8h32v16H40C35.6,480,32,476.4,32,472z M104,480H80v-16h32v8C112,476.4,108.4,480,104,480
	z M128,416v-32h256v32H128z M400,472v-8h32v16h-24C403.6,480,400,476.4,400,472z M472,480h-24v-16h32v8C480,476.4,476.4,480,472,480
	z"/>
<path d="M344,304c-5.9,0-11.6,2.2-16,6.1c-9.9-8.8-25-8-33.9,1.8c-8.8,9.9-8,25,1.8,33.9c9.1,8.2,22.9,8.2,32,0
	c9.9,8.8,25,8,33.9-1.9c8.8-9.9,8-25-1.9-33.9C355.6,306.2,349.9,304,344,304L344,304z M312,336c-4.4,0-8-3.6-8-8s3.6-8,8-8
	s8,3.6,8,8C320,332.4,316.4,336,312,336z M344,336c-4.4,0-8-3.6-8-8s3.6-8,8-8s8,3.6,8,8C352,332.4,348.4,336,344,336z"/>
</svg>
