<?xml version="1.0" encoding="utf-8"?>
<!-- Generator: Adobe Illustrator 24.3.0, SVG Export Plug-In . SVG Version: 6.00 Build 0)  -->
<svg version="1.1" id="Layer_1" xmlns="http://www.w3.org/2000/svg" xmlns:xlink="http://www.w3.org/1999/xlink" x="0px" y="0px"
	 viewBox="0 0 50 50" style="enable-background:new 0 0 50 50;" xml:space="preserve">
<style type="text/css">
	.st0{fill:#22BB33;}
	.st1{opacity:0;}
</style>
<rect x="8.5" y="4.5" class="st0" width="3" height="41"/>
<path class="st0" d="M11,5v40H9V5H11 M12,4H8v42h4V4z"/>
<rect x="38.5" y="4.5" class="st0" width="3" height="41"/>
<path class="st0" d="M41,5v40h-2V5H41 M42,4h-4v42h4V4z"/>
<rect x="8.5" y="36.5" class="st0" width="33" height="3"/>
<path class="st0" d="M41,37v2H9v-2H41 M42,36H8v4h34V36z"/>
<rect x="8.5" y="10.5" class="st0" width="33" height="3"/>
<path class="st0" d="M41,11v2H9v-2H41 M42,10H8v4h34V10z"/>
<g class="st1">
	<path d="M49,1v48H1V1H49 M50,0H0v50h50V0z"/>
</g>
</svg>
