<svg id="Layer_1" data-name="Layer 1" xmlns="http://www.w3.org/2000/svg" viewBox="0 0 50 50"><defs><style>.cls-1{opacity:0;}</style></defs><rect x="8.5" y="4.5" width="3" height="41"/><path d="M11,5V45H9V5h2m1-1H8V46h4V4Z"/><rect x="38.5" y="4.5" width="3" height="41"/><path d="M41,5V45H39V5h2m1-1H38V46h4V4Z"/><rect x="8.5" y="36.5" width="33" height="3"/><path d="M41,37v2H9V37H41m1-1H8v4H42V36Z"/><rect x="8.5" y="10.5" width="33" height="3"/><path d="M41,11v2H9V11H41m1-1H8v4H42V10Z"/><g class="cls-1"><path d="M49,1V49H1V1H49m1-1H0V50H50V0Z"/></g></svg>