<?xml version="1.0" encoding="utf-8"?>
<!-- Generator: Adobe Illustrator 24.3.0, SVG Export Plug-In . SVG Version: 6.00 Build 0)  -->
<svg version="1.1" id="Filled" xmlns="http://www.w3.org/2000/svg" xmlns:xlink="http://www.w3.org/1999/xlink" x="0px" y="0px"
	 viewBox="0 0 512 512" style="enable-background:new 0 0 512 512;" xml:space="preserve">
<style type="text/css">
	.st0{fill:#737D49;}
	.st1{fill:#4D5230;}
	.st2{fill:#60663C;}
	.st3{fill:#464C4F;}
	.st4{fill:#606669;}
</style>
<path class="st0" d="M440,217h-32c0,0-16,8-40,8s-40-8-40-8s-16,8-40,8s-40-8-40-8h-16v160h256V265C488,238.5,466.5,217,440,217z"/>
<path class="st0" d="M232,249v176H24v-64c0-17.7,14.3-32,32-32h32v-48c0-17.7,14.3-32,32-32H232z"/>
<path class="st1" d="M120,281h64v144h-64V281z"/>
<path class="st2" d="M120,281h64v64h-64V281z"/>
<circle class="st3" cx="96" cy="441" r="48"/>
<path class="st1" d="M216,361h272v64H216V361z"/>
<circle class="st3" cx="320" cy="441" r="48"/>
<circle class="st3" cx="416" cy="441" r="48"/>
<path class="st2" d="M216,329h32v64h-32V329z"/>
<path class="st1" d="M248,201v128h-32V201h-32v-32h32C233.7,169,248,183.3,248,201z"/>
<path class="st2" d="M248,361h240v32H248V361z"/>
<path class="st1" d="M312,361h32v32h-32V361z"/>
<path class="st1" d="M392,361h32v32h-32V361z"/>
<g>
	<circle class="st4" cx="96" cy="441" r="16"/>
	<circle class="st4" cx="320" cy="441" r="16"/>
	<circle class="st4" cx="416" cy="441" r="16"/>
</g>
<path d="M440,209h-32c-1.2,0-2.4,0.3-3.6,0.8c-0.1,0.1-14.8,7.2-36.4,7.2s-36.3-7.1-36.4-7.2c-2.2-1.1-4.9-1.1-7.1,0
	c-0.1,0.1-14.8,7.2-36.4,7.2c-10.9,0-21.7-1.8-32-5.4V201c0-22.1-17.9-40-40-40h-32c-4.4,0-8,3.6-8,8v32c0,4.4,3.6,8,8,8h24v32h-88
	c-22.1,0-40,17.9-40,40v40H56c-22.1,0-40,17.9-40,40v64c0,4.4,3.6,8,8,8h16.6c-4.4,30.6,16.8,59,47.4,63.4
	c24.3,3.5,48.1-9.2,58.6-31.4h122.8c13.2,27.9,46.6,39.8,74.6,26.6c10-4.7,18.3-12.3,24-21.8c15.9,26.5,50.3,35.1,76.8,19.3
	c19.4-11.6,29.9-33.7,26.6-56.1H488c4.4,0,8-3.6,8-8V265C496,234.1,470.9,209,440,209z M269.4,417H224v-16h56.9
	C276.1,405.6,272.3,411,269.4,417z M224,337h16v48h-16V337z M352,385v-16h32v16H352z M320,369h16v16h-16V369z M304,385h-48v-16h48
	V385z M376.9,401c-3.4,3.3-6.4,7.1-8.9,11.2c-2.5-4.1-5.4-7.9-8.9-11.2H376.9z M400,385v-16h16v16H400z M432,369h48v16h-48V369z
	 M400,228.5V353h-64V228.5C356.9,234.5,379.1,234.5,400,228.5L400,228.5z M288,233c10.8,0,21.6-1.5,32-4.5V353h-64V228.5
	C266.4,231.5,277.2,233,288,233z M192,193v-16h24c13.2,0,24,10.8,24,24v120h-16V201c0-4.4-3.6-8-8-8H192z M32,417v-56
	c0-13.2,10.8-24,24-24h32c4.4,0,8-3.6,8-8v-48c0-13.2,10.8-24,24-24h88v160h-16V281c0-4.4-3.6-8-8-8h-64c-4.4,0-8,3.6-8,8v106.3
	c-26.5-7.9-54.8,4.7-66.6,29.7H32z M128,395.1V353h48v16h-8c-4.4,0-8,3.6-8,8s3.6,8,8,8h8v32h-29.4C142.4,408.2,136,400.7,128,395.1
	z M176,337h-48v-48h48V337z M96,481c-22.1,0-40-17.9-40-40s17.9-40,40-40s40,17.9,40,40C136,463.1,118.1,481,96,481z M184,449h-32.6
	c0.8-5.3,0.8-10.7,0-16H184V449z M200,449v-16h64.6c-0.8,5.3-0.8,10.7,0,16H200z M320,481c-22.1,0-40-17.9-40-40s17.9-40,40-40
	s40,17.9,40,40C360,463.1,342.1,481,320,481z M416,481c-22.1,0-40-17.9-40-40s17.9-40,40-40s40,17.9,40,40
	C456,463.1,438.1,481,416,481z M466.6,417c-2.8-6-6.7-11.4-11.4-16H480v16H466.6z M480,353h-64V225h24c22.1,0,40,17.9,40,40V353z"/>
<path d="M96,417c-13.3,0-24,10.7-24,24s10.7,24,24,24s24-10.7,24-24C120,427.8,109.2,417,96,417z M96,449c-4.4,0-8-3.6-8-8
	s3.6-8,8-8s8,3.6,8,8C104,445.4,100.4,449,96,449z"/>
<path d="M320,417c-13.3,0-24,10.7-24,24s10.7,24,24,24s24-10.7,24-24C344,427.8,333.2,417,320,417z M320,449c-4.4,0-8-3.6-8-8
	s3.6-8,8-8s8,3.6,8,8C328,445.4,324.4,449,320,449z"/>
<path d="M416,417c-13.3,0-24,10.7-24,24s10.7,24,24,24s24-10.7,24-24C440,427.8,429.2,417,416,417z M416,449c-4.4,0-8-3.6-8-8
	s3.6-8,8-8s8,3.6,8,8C424,445.4,420.4,449,416,449z"/>
</svg>
